<svg width="171" height="216" viewBox="0 0 171 216" fill="none" xmlns="http://www.w3.org/2000/svg">
<path d="M105.66 61.17C97.2899 61.17 88.77 60.83 80.7999 58.61C72.9799 56.44 65.7999 52.23 59.3999 47.36C55.2099 44.19 51.3999 41.66 45.9599 42.04C40.638 42.328 35.5487 44.3153 31.4399 47.71C24.5199 53.77 25.5599 65 28.3299 72.86C32.4899 84.73 45.1499 93 55.9099 98.35C68.34 104.56 82 108.17 95.6899 110.24C107.69 112.07 123.11 113.39 133.51 105.56C143.06 98.35 145.68 81.91 143.34 70.81C142.772 67.5309 141.026 64.5721 138.43 62.49C131.72 57.58 121.71 60.86 114.17 61.02C111.37 61.08 108.52 61.15 105.66 61.17Z" fill="#F2F2F2"/>
<path d="M85.5801 129.7C105.854 129.7 122.29 128.675 122.29 127.41C122.29 126.145 105.854 125.12 85.5801 125.12C65.3057 125.12 48.8701 126.145 48.8701 127.41C48.8701 128.675 65.3057 129.7 85.5801 129.7Z" fill="#F2F2F2"/>
<path d="M33.78 39.12L46.78 38.02C48.4011 37.878 50.0218 38.2973 51.3707 39.2075C52.7196 40.1177 53.7149 41.4636 54.19 43.02L66.65 84.72L64.21 89.09C63.5833 90.216 63.2739 91.4909 63.3149 92.7789C63.3558 94.0669 63.7455 95.3196 64.4424 96.4035C65.1394 97.4874 66.1174 98.3619 67.2723 98.9336C68.4271 99.5053 69.7155 99.7529 71 99.65L120.9 95.41" stroke="#BABABA" stroke-linecap="round" stroke-linejoin="round"/>
<path d="M56.05 49.35L114.05 44.43C114.621 44.381 115.196 44.4613 115.733 44.665C116.269 44.8686 116.752 45.1903 117.147 45.6062C117.542 46.0221 117.838 46.5216 118.013 47.0675C118.188 47.6135 118.239 48.192 118.16 48.76L114.23 77.13C114.111 77.9812 113.709 78.7675 113.088 79.3624C112.468 79.9573 111.665 80.3263 110.81 80.41L66.6501 84.72L56.05 49.35Z" fill="white" stroke="#BABABA" stroke-linecap="round" stroke-linejoin="round"/>
<path d="M76.5501 109.21C79.1514 109.21 81.2601 107.101 81.2601 104.5C81.2601 101.899 79.1514 99.79 76.5501 99.79C73.9488 99.79 71.8401 101.899 71.8401 104.5C71.8401 107.101 73.9488 109.21 76.5501 109.21Z" fill="white" stroke="#BABABA" stroke-linecap="round" stroke-linejoin="round"/>
<path d="M109.35 106.43C111.951 106.43 114.06 104.321 114.06 101.72C114.06 99.1187 111.951 97.01 109.35 97.01C106.749 97.01 104.64 99.1187 104.64 101.72C104.64 104.321 106.749 106.43 109.35 106.43Z" fill="white" stroke="#BABABA" stroke-linecap="round" stroke-linejoin="round"/>
<path d="M44.0746 36.894L31.8186 37.9339C30.7565 38.0241 29.9686 38.9581 30.0587 40.0202C30.1488 41.0823 31.0829 41.8702 32.1449 41.7801L44.4009 40.7402C45.463 40.6501 46.2509 39.716 46.1608 38.6539C46.0707 37.5918 45.1366 36.8039 44.0746 36.894Z" fill="#D2D2D2"/>
<path d="M80.47 71.26C80.7091 69.4349 81.565 67.7465 82.8957 66.4747C84.2263 65.2029 85.9517 64.4242 87.7857 64.2678C89.6197 64.1113 91.4521 64.5866 92.9789 65.6146C94.5057 66.6427 95.6352 68.1618 96.18 69.92" stroke="#BABABA" stroke-linecap="round" stroke-linejoin="round"/>
<path d="M96.3099 60.47C96.9285 60.47 97.4299 59.9686 97.4299 59.35C97.4299 58.7315 96.9285 58.23 96.3099 58.23C95.6914 58.23 95.1899 58.7315 95.1899 59.35C95.1899 59.9686 95.6914 60.47 96.3099 60.47Z" fill="#BABABA"/>
<path d="M78.5599 61.97C79.1785 61.97 79.6799 61.4686 79.6799 60.85C79.6799 60.2315 79.1785 59.73 78.5599 59.73C77.9414 59.73 77.4399 60.2315 77.4399 60.85C77.4399 61.4686 77.9414 61.97 78.5599 61.97Z" fill="#BABABA"/>
<path d="M47.01 103.11V107.42" stroke="#BABABA" stroke-linecap="round" stroke-linejoin="round"/>
<path d="M44.8601 105.26H49.1601" stroke="#BABABA" stroke-linecap="round" stroke-linejoin="round"/>
<path d="M115.72 22.99V27.29" stroke="#BABABA" stroke-linecap="round" stroke-linejoin="round"/>
<path d="M113.57 25.14H117.87" stroke="#BABABA" stroke-linecap="round" stroke-linejoin="round"/>
<path d="M64.8101 35.84V40.14" stroke="#BABABA" stroke-linecap="round" stroke-linejoin="round"/>
<path d="M62.6499 37.99H66.9599" stroke="#BABABA" stroke-linecap="round" stroke-linejoin="round"/>
<path d="M126.45 51.65C127.013 51.65 127.47 51.1933 127.47 50.63C127.47 50.0667 127.013 49.61 126.45 49.61C125.887 49.61 125.43 50.0667 125.43 50.63C125.43 51.1933 125.887 51.65 126.45 51.65Z" fill="white" stroke="#BABABA" stroke-linecap="round" stroke-linejoin="round"/>
<path d="M88.3301 42.48C88.8713 42.48 89.3101 42.0412 89.3101 41.5C89.3101 40.9587 88.8713 40.52 88.3301 40.52C87.7889 40.52 87.3501 40.9587 87.3501 41.5C87.3501 42.0412 87.7889 42.48 88.3301 42.48Z" fill="#CFCFCF"/>
<path d="M94.9099 113.6C95.4512 113.6 95.8899 113.161 95.8899 112.62C95.8899 112.079 95.4512 111.64 94.9099 111.64C94.3687 111.64 93.9299 112.079 93.9299 112.62C93.9299 113.161 94.3687 113.6 94.9099 113.6Z" fill="#CFCFCF"/>
<path d="M66.4701 161.6V168.83H65.7801C65.6734 168.83 65.5834 168.813 65.5101 168.78C65.4401 168.743 65.3717 168.683 65.3051 168.6L61.5301 163.78C61.5501 164 61.5601 164.203 61.5601 164.39V168.83H60.3751V161.6H61.0801C61.1367 161.6 61.1851 161.603 61.2251 161.61C61.2684 161.613 61.3051 161.623 61.3351 161.64C61.3684 161.653 61.4001 161.675 61.4301 161.705C61.4601 161.732 61.4934 161.768 61.5301 161.815L65.3201 166.655C65.3101 166.538 65.3017 166.423 65.2951 166.31C65.2884 166.197 65.2851 166.092 65.2851 165.995V161.6H66.4701ZM69.9989 163.62C70.3789 163.62 70.7239 163.682 71.0339 163.805C71.3472 163.928 71.6139 164.103 71.8339 164.33C72.0572 164.557 72.2289 164.833 72.3489 165.16C72.4689 165.487 72.5289 165.852 72.5289 166.255C72.5289 166.662 72.4689 167.028 72.3489 167.355C72.2289 167.682 72.0572 167.96 71.8339 168.19C71.6139 168.42 71.3472 168.597 71.0339 168.72C70.7239 168.843 70.3789 168.905 69.9989 168.905C69.6156 168.905 69.2672 168.843 68.9539 168.72C68.6406 168.597 68.3722 168.42 68.1489 168.19C67.9289 167.96 67.7572 167.682 67.6339 167.355C67.5139 167.028 67.4539 166.662 67.4539 166.255C67.4539 165.852 67.5139 165.487 67.6339 165.16C67.7572 164.833 67.9289 164.557 68.1489 164.33C68.3722 164.103 68.6406 163.928 68.9539 163.805C69.2672 163.682 69.6156 163.62 69.9989 163.62ZM69.9989 167.955C70.4256 167.955 70.7406 167.812 70.9439 167.525C71.1506 167.238 71.2539 166.818 71.2539 166.265C71.2539 165.712 71.1506 165.29 70.9439 165C70.7406 164.71 70.4256 164.565 69.9989 164.565C69.5656 164.565 69.2439 164.712 69.0339 165.005C68.8272 165.295 68.7239 165.715 68.7239 166.265C68.7239 166.815 68.8272 167.235 69.0339 167.525C69.2439 167.812 69.5656 167.955 69.9989 167.955ZM83.9377 161.6V168.83H82.7527V164.16C82.7527 163.973 82.7627 163.772 82.7827 163.555L80.5977 167.66C80.4944 167.857 80.3361 167.955 80.1227 167.955H79.9327C79.7194 167.955 79.5611 167.857 79.4577 167.66L77.2477 163.54C77.2577 163.65 77.2661 163.758 77.2727 163.865C77.2794 163.972 77.2827 164.07 77.2827 164.16V168.83H76.0977V161.6H77.1127C77.1727 161.6 77.2244 161.602 77.2677 161.605C77.3111 161.608 77.3494 161.617 77.3827 161.63C77.4194 161.643 77.4511 161.665 77.4777 161.695C77.5077 161.725 77.5361 161.765 77.5627 161.815L79.7277 165.83C79.7844 165.937 79.8361 166.047 79.8827 166.16C79.9327 166.273 79.9811 166.39 80.0277 166.51C80.0744 166.387 80.1227 166.268 80.1727 166.155C80.2227 166.038 80.2761 165.927 80.3327 165.82L82.4677 161.815C82.4944 161.765 82.5227 161.725 82.5527 161.695C82.5827 161.665 82.6144 161.643 82.6477 161.63C82.6844 161.617 82.7244 161.608 82.7677 161.605C82.8111 161.602 82.8627 161.6 82.9227 161.6H83.9377ZM88.5046 165.675C88.5046 165.515 88.4813 165.365 88.4346 165.225C88.3913 165.082 88.3246 164.957 88.2346 164.85C88.1446 164.743 88.0296 164.66 87.8896 164.6C87.7529 164.537 87.5929 164.505 87.4096 164.505C87.0529 164.505 86.7713 164.607 86.5646 164.81C86.3613 165.013 86.2313 165.302 86.1746 165.675H88.5046ZM86.1496 166.42C86.1696 166.683 86.2163 166.912 86.2896 167.105C86.3629 167.295 86.4596 167.453 86.5796 167.58C86.6996 167.703 86.8413 167.797 87.0046 167.86C87.1713 167.92 87.3546 167.95 87.5546 167.95C87.7546 167.95 87.9263 167.927 88.0696 167.88C88.2163 167.833 88.3429 167.782 88.4496 167.725C88.5596 167.668 88.6546 167.617 88.7346 167.57C88.8179 167.523 88.8979 167.5 88.9746 167.5C89.0779 167.5 89.1546 167.538 89.2046 167.615L89.5596 168.065C89.4229 168.225 89.2696 168.36 89.0996 168.47C88.9296 168.577 88.7513 168.663 88.5646 168.73C88.3813 168.793 88.1929 168.838 87.9996 168.865C87.8096 168.892 87.6246 168.905 87.4446 168.905C87.0879 168.905 86.7563 168.847 86.4496 168.73C86.1429 168.61 85.8763 168.435 85.6496 168.205C85.4229 167.972 85.2446 167.685 85.1146 167.345C84.9846 167.002 84.9196 166.605 84.9196 166.155C84.9196 165.805 84.9763 165.477 85.0896 165.17C85.2029 164.86 85.3646 164.592 85.5746 164.365C85.7879 164.135 86.0463 163.953 86.3496 163.82C86.6563 163.687 87.0013 163.62 87.3846 163.62C87.7079 163.62 88.0063 163.672 88.2796 163.775C88.5529 163.878 88.7879 164.03 88.9846 164.23C89.1813 164.427 89.3346 164.67 89.4446 164.96C89.5579 165.247 89.6146 165.575 89.6146 165.945C89.6146 166.132 89.5946 166.258 89.5546 166.325C89.5146 166.388 89.4379 166.42 89.3246 166.42H86.1496ZM93.2514 166.64C92.8947 166.657 92.5947 166.688 92.3514 166.735C92.1081 166.778 91.9131 166.835 91.7664 166.905C91.6197 166.975 91.5147 167.057 91.4514 167.15C91.3881 167.243 91.3564 167.345 91.3564 167.455C91.3564 167.672 91.4197 167.827 91.5464 167.92C91.6764 168.013 91.8447 168.06 92.0514 168.06C92.3047 168.06 92.5231 168.015 92.7064 167.925C92.8931 167.832 93.0747 167.692 93.2514 167.505V166.64ZM90.4214 164.415C91.0114 163.875 91.7214 163.605 92.5514 163.605C92.8514 163.605 93.1197 163.655 93.3564 163.755C93.5931 163.852 93.7931 163.988 93.9564 164.165C94.1197 164.338 94.2431 164.547 94.3264 164.79C94.4131 165.033 94.4564 165.3 94.4564 165.59V168.83H93.8964C93.7797 168.83 93.6897 168.813 93.6264 168.78C93.5631 168.743 93.5131 168.672 93.4764 168.565L93.3664 168.195C93.2364 168.312 93.1097 168.415 92.9864 168.505C92.8631 168.592 92.7347 168.665 92.6014 168.725C92.4681 168.785 92.3247 168.83 92.1714 168.86C92.0214 168.893 91.8547 168.91 91.6714 168.91C91.4547 168.91 91.2547 168.882 91.0714 168.825C90.8881 168.765 90.7297 168.677 90.5964 168.56C90.4631 168.443 90.3597 168.298 90.2864 168.125C90.2131 167.952 90.1764 167.75 90.1764 167.52C90.1764 167.39 90.1981 167.262 90.2414 167.135C90.2847 167.005 90.3547 166.882 90.4514 166.765C90.5514 166.648 90.6797 166.538 90.8364 166.435C90.9931 166.332 91.1847 166.242 91.4114 166.165C91.6414 166.088 91.9081 166.027 92.2114 165.98C92.5147 165.93 92.8614 165.9 93.2514 165.89V165.59C93.2514 165.247 93.1781 164.993 93.0314 164.83C92.8847 164.663 92.6731 164.58 92.3964 164.58C92.1964 164.58 92.0297 164.603 91.8964 164.65C91.7664 164.697 91.6514 164.75 91.5514 164.81C91.4514 164.867 91.3597 164.918 91.2764 164.965C91.1964 165.012 91.1064 165.035 91.0064 165.035C90.9197 165.035 90.8464 165.013 90.7864 164.97C90.7264 164.923 90.6781 164.87 90.6414 164.81L90.4214 164.415ZM96.8695 161.4V168.83H95.6345V161.4H96.8695ZM101.23 164.7C101.197 164.753 101.162 164.792 101.125 164.815C101.088 164.835 101.042 164.845 100.985 164.845C100.925 164.845 100.86 164.828 100.79 164.795C100.723 164.762 100.645 164.725 100.555 164.685C100.465 164.642 100.362 164.603 100.245 164.57C100.132 164.537 99.9967 164.52 99.84 164.52C99.5967 164.52 99.405 164.572 99.265 164.675C99.1283 164.778 99.06 164.913 99.06 165.08C99.06 165.19 99.095 165.283 99.165 165.36C99.2383 165.433 99.3333 165.498 99.45 165.555C99.57 165.612 99.705 165.663 99.855 165.71C100.005 165.753 100.157 165.802 100.31 165.855C100.467 165.908 100.62 165.97 100.77 166.04C100.92 166.107 101.053 166.193 101.17 166.3C101.29 166.403 101.385 166.528 101.455 166.675C101.528 166.822 101.565 166.998 101.565 167.205C101.565 167.452 101.52 167.68 101.43 167.89C101.343 168.097 101.213 168.277 101.04 168.43C100.867 168.58 100.652 168.698 100.395 168.785C100.142 168.868 99.8483 168.91 99.515 168.91C99.3383 168.91 99.165 168.893 98.995 168.86C98.8283 168.83 98.6667 168.787 98.51 168.73C98.3567 168.673 98.2133 168.607 98.08 168.53C97.95 168.453 97.835 168.37 97.735 168.28L98.02 167.81C98.0567 167.753 98.1 167.71 98.15 167.68C98.2 167.65 98.2633 167.635 98.34 167.635C98.4167 167.635 98.4883 167.657 98.555 167.7C98.625 167.743 98.705 167.79 98.795 167.84C98.885 167.89 98.99 167.937 99.11 167.98C99.2333 168.023 99.3883 168.045 99.575 168.045C99.7217 168.045 99.8467 168.028 99.95 167.995C100.057 167.958 100.143 167.912 100.21 167.855C100.28 167.798 100.33 167.733 100.36 167.66C100.393 167.583 100.41 167.505 100.41 167.425C100.41 167.305 100.373 167.207 100.3 167.13C100.23 167.053 100.135 166.987 100.015 166.93C99.8983 166.873 99.7633 166.823 99.61 166.78C99.46 166.733 99.305 166.683 99.145 166.63C98.9883 166.577 98.8333 166.515 98.68 166.445C98.53 166.372 98.395 166.28 98.275 166.17C98.1583 166.06 98.0633 165.925 97.99 165.765C97.92 165.605 97.885 165.412 97.885 165.185C97.885 164.975 97.9267 164.775 98.01 164.585C98.0933 164.395 98.215 164.23 98.375 164.09C98.5383 163.947 98.74 163.833 98.98 163.75C99.2233 163.663 99.5033 163.62 99.82 163.62C100.173 163.62 100.495 163.678 100.785 163.795C101.075 163.912 101.317 164.065 101.51 164.255L101.23 164.7Z" fill="#939090"/>
<path d="M45.6344 180.579V182.504C45.3824 182.686 45.1129 182.822 44.8259 182.913C44.5413 183.002 44.2286 183.046 43.8879 183.046C43.4843 183.046 43.1203 182.984 42.7959 182.861C42.4716 182.735 42.1939 182.56 41.9629 182.336C41.7343 182.109 41.5581 181.839 41.4344 181.524C41.3108 181.209 41.2489 180.862 41.2489 180.484C41.2489 180.101 41.3084 179.753 41.4274 179.438C41.5488 179.123 41.7203 178.853 41.9419 178.629C42.1636 178.403 42.4331 178.228 42.7504 178.104C43.0678 177.98 43.4224 177.919 43.8144 177.919C44.0128 177.919 44.1971 177.934 44.3674 177.964C44.5378 177.992 44.6953 178.034 44.8399 178.09C44.9846 178.144 45.1188 178.21 45.2424 178.29C45.3661 178.367 45.4816 178.454 45.5889 178.552L45.3964 178.86C45.3661 178.907 45.3264 178.937 45.2774 178.951C45.2308 178.963 45.1783 178.951 45.1199 178.916C45.0639 178.883 44.9998 178.844 44.9274 178.797C44.8551 178.75 44.7664 178.706 44.6614 178.664C44.5588 178.62 44.4363 178.582 44.2939 178.552C44.1539 178.522 43.9871 178.507 43.7934 178.507C43.5111 178.507 43.2556 178.553 43.0269 178.647C42.7983 178.738 42.6034 178.869 42.4424 179.042C42.2814 179.212 42.1578 179.42 42.0714 179.665C41.9851 179.908 41.9419 180.181 41.9419 180.484C41.9419 180.799 41.9863 181.081 42.0749 181.331C42.1659 181.578 42.2943 181.79 42.4599 181.965C42.6279 182.137 42.8309 182.269 43.0689 182.36C43.3069 182.451 43.5741 182.497 43.8704 182.497C44.1038 182.497 44.3103 182.471 44.4899 182.42C44.6719 182.366 44.8493 182.292 45.0219 182.199V181.097H44.2414C44.1971 181.097 44.1609 181.084 44.1329 181.058C44.1073 181.032 44.0944 181.001 44.0944 180.964V180.579H45.6344ZM47.9802 179.389C48.2392 179.389 48.4725 179.432 48.6802 179.518C48.8879 179.604 49.0652 179.727 49.2122 179.886C49.3592 180.044 49.4712 180.237 49.5482 180.463C49.6275 180.687 49.6672 180.938 49.6672 181.216C49.6672 181.496 49.6275 181.748 49.5482 181.972C49.4712 182.196 49.3592 182.387 49.2122 182.546C49.0652 182.704 48.8879 182.827 48.6802 182.913C48.4725 182.997 48.2392 183.039 47.9802 183.039C47.7189 183.039 47.4832 182.997 47.2732 182.913C47.0655 182.827 46.8882 182.704 46.7412 182.546C46.5942 182.387 46.481 182.196 46.4017 181.972C46.3247 181.748 46.2862 181.496 46.2862 181.216C46.2862 180.938 46.3247 180.687 46.4017 180.463C46.481 180.237 46.5942 180.044 46.7412 179.886C46.8882 179.727 47.0655 179.604 47.2732 179.518C47.4832 179.432 47.7189 179.389 47.9802 179.389ZM47.9802 182.553C48.3302 182.553 48.5915 182.436 48.7642 182.203C48.9369 181.967 49.0232 181.639 49.0232 181.219C49.0232 180.797 48.9369 180.468 48.7642 180.232C48.5915 179.996 48.3302 179.879 47.9802 179.879C47.8029 179.879 47.6477 179.909 47.5147 179.97C47.384 180.03 47.2744 180.118 47.1857 180.232C47.0994 180.346 47.034 180.488 46.9897 180.656C46.9477 180.821 46.9267 181.009 46.9267 181.219C46.9267 181.639 47.013 181.967 47.1857 182.203C47.3607 182.436 47.6255 182.553 47.9802 182.553ZM52.4864 182.99V179.977L52.0944 179.931C52.043 179.919 52.0022 179.902 51.9719 179.879C51.9415 179.853 51.9264 179.817 51.9264 179.77V179.515H52.4864V179.319C52.4864 179.102 52.5202 178.903 52.5879 178.724C52.6555 178.542 52.757 178.385 52.8924 178.255C53.0277 178.124 53.1957 178.022 53.3964 177.95C53.5994 177.878 53.8339 177.842 54.0999 177.842C54.1885 177.842 54.2795 177.847 54.3729 177.859C54.4662 177.871 54.5467 177.888 54.6144 177.912L54.5899 178.237C54.5875 178.26 54.5782 178.277 54.5619 178.286C54.5479 178.295 54.528 178.301 54.5024 178.304C54.4767 178.306 54.444 178.307 54.4044 178.307C54.367 178.305 54.3239 178.304 54.2749 178.304C53.8595 178.304 53.5585 178.39 53.3719 178.563C53.1852 178.733 53.0919 178.991 53.0919 179.336V179.515H55.2339V182.99H54.6074V179.966H53.1094V182.99H52.4864ZM56.8422 179.959C56.9192 179.873 57.0009 179.795 57.0872 179.725C57.1736 179.655 57.2646 179.595 57.3602 179.546C57.4582 179.495 57.5609 179.456 57.6682 179.431C57.7779 179.403 57.8957 179.389 58.0217 179.389C58.2154 179.389 58.3857 179.421 58.5327 179.487C58.6821 179.55 58.8057 179.641 58.9037 179.76C59.0041 179.876 59.0799 180.017 59.1312 180.183C59.1826 180.349 59.2082 180.532 59.2082 180.733V182.99H58.5817V180.733C58.5817 180.464 58.5199 180.257 58.3962 180.11C58.2749 179.96 58.0894 179.886 57.8397 179.886C57.6554 179.886 57.4827 179.93 57.3217 180.019C57.1631 180.107 57.0161 180.227 56.8807 180.379V182.99H56.2542V179.445H56.6287C56.7174 179.445 56.7722 179.488 56.7932 179.574L56.8422 179.959ZM62.4676 180.288C62.3509 180.132 62.2249 180.023 62.0896 179.963C61.9542 179.9 61.8026 179.868 61.6346 179.868C61.3056 179.868 61.0524 179.986 60.8751 180.222C60.6977 180.457 60.6091 180.793 60.6091 181.23C60.6091 181.461 60.6289 181.659 60.6686 181.825C60.7082 181.988 60.7666 182.123 60.8436 182.231C60.9206 182.336 61.0151 182.413 61.1271 182.462C61.2391 182.511 61.3662 182.535 61.5086 182.535C61.7139 182.535 61.8924 182.488 62.0441 182.395C62.1981 182.302 62.3392 182.17 62.4676 182V180.288ZM63.0906 177.835V182.99H62.7196C62.6309 182.99 62.5749 182.947 62.5516 182.861L62.4956 182.43C62.3439 182.612 62.1712 182.759 61.9776 182.871C61.7839 182.983 61.5599 183.039 61.3056 183.039C61.1026 183.039 60.9182 183.001 60.7526 182.924C60.5869 182.844 60.4457 182.729 60.3291 182.577C60.2124 182.425 60.1226 182.236 60.0596 182.01C59.9966 181.784 59.9651 181.524 59.9651 181.23C59.9651 180.968 60.0001 180.726 60.0701 180.502C60.1401 180.275 60.2404 180.079 60.3711 179.914C60.5017 179.748 60.6616 179.618 60.8506 179.525C61.0419 179.429 61.2566 179.382 61.4946 179.382C61.7116 179.382 61.8971 179.419 62.0511 179.494C62.2074 179.566 62.3462 179.667 62.4676 179.798V177.835H63.0906ZM66.9541 183.046C66.6741 183.046 66.4582 182.968 66.3066 182.812C66.1572 182.655 66.0826 182.43 66.0826 182.136V179.966H65.6556C65.6182 179.966 65.5867 179.956 65.5611 179.935C65.5354 179.911 65.5226 179.876 65.5226 179.83V179.581L66.1036 179.508L66.2471 178.412C66.2541 178.377 66.2692 178.349 66.2926 178.328C66.3182 178.305 66.3509 178.293 66.3906 178.293H66.7056V179.515H67.7311V179.966H66.7056V182.094C66.7056 182.243 66.7417 182.354 66.8141 182.427C66.8864 182.499 66.9797 182.535 67.0941 182.535C67.1594 182.535 67.2154 182.527 67.2621 182.511C67.3111 182.492 67.3531 182.472 67.3881 182.451C67.4231 182.43 67.4522 182.411 67.4756 182.395C67.5012 182.376 67.5234 182.367 67.5421 182.367C67.5747 182.367 67.6039 182.387 67.6296 182.427L67.8116 182.724C67.7042 182.824 67.5747 182.904 67.4231 182.962C67.2714 183.018 67.1151 183.046 66.9541 183.046ZM69.0009 179.917C69.1525 179.756 69.3205 179.628 69.5049 179.532C69.6892 179.436 69.9015 179.389 70.1419 179.389C70.3355 179.389 70.5059 179.421 70.6529 179.487C70.8022 179.55 70.9259 179.641 71.0239 179.76C71.1242 179.876 71.2 180.017 71.2514 180.183C71.3027 180.349 71.3284 180.532 71.3284 180.733V182.99H70.7019V180.733C70.7019 180.464 70.64 180.257 70.5164 180.11C70.395 179.96 70.2095 179.886 69.9599 179.886C69.7755 179.886 69.6029 179.93 69.4419 180.019C69.2832 180.107 69.1362 180.227 69.0009 180.379V182.99H68.3744V177.835H69.0009V179.917ZM74.6507 180.831C74.6507 180.686 74.6297 180.554 74.5877 180.435C74.548 180.314 74.4885 180.21 74.4092 180.124C74.3322 180.035 74.2377 179.967 74.1257 179.921C74.0137 179.872 73.8865 179.847 73.7442 179.847C73.4455 179.847 73.2087 179.935 73.0337 180.11C72.861 180.282 72.7537 180.523 72.7117 180.831H74.6507ZM75.1547 182.493C75.0777 182.586 74.9855 182.668 74.8782 182.738C74.7708 182.806 74.6553 182.862 74.5317 182.906C74.4103 182.95 74.2843 182.983 74.1537 183.004C74.023 183.027 73.8935 183.039 73.7652 183.039C73.5202 183.039 73.2938 182.998 73.0862 182.917C72.8808 182.833 72.7023 182.711 72.5507 182.553C72.4013 182.392 72.2847 182.193 72.2007 181.958C72.1167 181.722 72.0747 181.451 72.0747 181.146C72.0747 180.898 72.112 180.667 72.1867 180.453C72.2637 180.238 72.3733 180.052 72.5157 179.896C72.658 179.737 72.8318 179.614 73.0372 179.525C73.2425 179.434 73.4735 179.389 73.7302 179.389C73.9425 179.389 74.1385 179.425 74.3182 179.497C74.5002 179.567 74.6565 179.67 74.7872 179.805C74.9202 179.938 75.024 180.104 75.0987 180.302C75.1733 180.498 75.2107 180.722 75.2107 180.974C75.2107 181.072 75.2002 181.137 75.1792 181.17C75.1582 181.203 75.1185 181.219 75.0602 181.219H72.6907C72.6977 181.443 72.728 181.638 72.7817 181.804C72.8377 181.969 72.9147 182.108 73.0127 182.22C73.1107 182.33 73.2273 182.413 73.3627 182.469C73.498 182.522 73.6497 182.549 73.8177 182.549C73.974 182.549 74.1082 182.532 74.2202 182.497C74.3345 182.459 74.4325 182.42 74.5142 182.378C74.5958 182.336 74.6635 182.297 74.7172 182.262C74.7732 182.225 74.821 182.206 74.8607 182.206C74.912 182.206 74.9517 182.226 74.9797 182.266L75.1547 182.493ZM77.7669 182.99V179.445H78.1414C78.2301 179.445 78.2849 179.488 78.3059 179.574L78.3514 179.938C78.4821 179.777 78.6291 179.645 78.7924 179.543C78.9558 179.44 79.1448 179.389 79.3594 179.389C79.5974 179.389 79.7899 179.455 79.9369 179.588C80.0863 179.721 80.1936 179.901 80.2589 180.127C80.3103 179.999 80.3756 179.888 80.4549 179.795C80.5366 179.701 80.6276 179.624 80.7279 179.564C80.8283 179.503 80.9344 179.459 81.0464 179.431C81.1608 179.403 81.2763 179.389 81.3929 179.389C81.5796 179.389 81.7453 179.419 81.8899 179.48C82.0369 179.538 82.1606 179.624 82.2609 179.739C82.3636 179.853 82.4418 179.994 82.4954 180.162C82.5491 180.328 82.5759 180.518 82.5759 180.733V182.99H81.9494V180.733C81.9494 180.455 81.8888 180.245 81.7674 180.103C81.6461 179.958 81.4711 179.886 81.2424 179.886C81.1398 179.886 81.0418 179.904 80.9484 179.942C80.8574 179.977 80.7769 180.029 80.7069 180.099C80.6369 180.169 80.5809 180.258 80.5389 180.365C80.4993 180.47 80.4794 180.593 80.4794 180.733V182.99H79.8529V180.733C79.8529 180.448 79.7958 180.236 79.6814 180.096C79.5671 179.956 79.4003 179.886 79.1809 179.886C79.0269 179.886 78.8846 179.928 78.7539 180.012C78.6233 180.093 78.5031 180.205 78.3934 180.348V182.99H77.7669ZM85.8958 180.831C85.8958 180.686 85.8748 180.554 85.8328 180.435C85.7931 180.314 85.7336 180.21 85.6543 180.124C85.5773 180.035 85.4828 179.967 85.3708 179.921C85.2588 179.872 85.1316 179.847 84.9893 179.847C84.6906 179.847 84.4538 179.935 84.2788 180.11C84.1061 180.282 83.9988 180.523 83.9568 180.831H85.8958ZM86.3998 182.493C86.3228 182.586 86.2306 182.668 86.1233 182.738C86.016 182.806 85.9005 182.862 85.7768 182.906C85.6555 182.95 85.5295 182.983 85.3988 183.004C85.2681 183.027 85.1386 183.039 85.0103 183.039C84.7653 183.039 84.539 182.998 84.3313 182.917C84.126 182.833 83.9475 182.711 83.7958 182.553C83.6465 182.392 83.5298 182.193 83.4458 181.958C83.3618 181.722 83.3198 181.451 83.3198 181.146C83.3198 180.898 83.3571 180.667 83.4318 180.453C83.5088 180.238 83.6185 180.052 83.7608 179.896C83.9031 179.737 84.077 179.614 84.2823 179.525C84.4876 179.434 84.7186 179.389 84.9753 179.389C85.1876 179.389 85.3836 179.425 85.5633 179.497C85.7453 179.567 85.9016 179.67 86.0323 179.805C86.1653 179.938 86.2691 180.104 86.3438 180.302C86.4185 180.498 86.4558 180.722 86.4558 180.974C86.4558 181.072 86.4453 181.137 86.4243 181.17C86.4033 181.203 86.3636 181.219 86.3053 181.219H83.9358C83.9428 181.443 83.9731 181.638 84.0268 181.804C84.0828 181.969 84.1598 182.108 84.2578 182.22C84.3558 182.33 84.4725 182.413 84.6078 182.469C84.7431 182.522 84.8948 182.549 85.0628 182.549C85.2191 182.549 85.3533 182.532 85.4653 182.497C85.5796 182.459 85.6776 182.42 85.7593 182.378C85.841 182.336 85.9086 182.297 85.9623 182.262C86.0183 182.225 86.0661 182.206 86.1058 182.206C86.1571 182.206 86.1968 182.226 86.2248 182.266L86.3998 182.493ZM89.1425 181.394C88.8555 181.403 88.6105 181.427 88.4075 181.464C88.2069 181.499 88.0424 181.546 87.914 181.604C87.788 181.662 87.6959 181.731 87.6375 181.811C87.5815 181.89 87.5535 181.979 87.5535 182.077C87.5535 182.17 87.5687 182.25 87.599 182.318C87.6294 182.386 87.6702 182.442 87.7215 182.486C87.7752 182.528 87.837 182.56 87.907 182.581C87.9794 182.599 88.0564 182.609 88.138 182.609C88.2477 182.609 88.348 182.598 88.439 182.577C88.53 182.554 88.6152 182.521 88.6945 182.479C88.7762 182.437 88.8532 182.387 88.9255 182.329C89.0002 182.27 89.0725 182.204 89.1425 182.129V181.394ZM87.13 179.945C87.326 179.756 87.5372 179.615 87.7635 179.522C87.9899 179.428 88.2407 179.382 88.516 179.382C88.7144 179.382 88.8905 179.414 89.0445 179.48C89.1985 179.545 89.328 179.636 89.433 179.753C89.538 179.869 89.6174 180.01 89.671 180.176C89.7247 180.342 89.7515 180.524 89.7515 180.722V182.99H89.475C89.4144 182.99 89.3677 182.981 89.335 182.962C89.3024 182.941 89.2767 182.901 89.258 182.843L89.188 182.507C89.0947 182.593 89.0037 182.67 88.915 182.738C88.8264 182.803 88.733 182.859 88.635 182.906C88.537 182.95 88.432 182.984 88.32 183.008C88.2104 183.033 88.0879 183.046 87.9525 183.046C87.8149 183.046 87.6854 183.027 87.564 182.99C87.4427 182.95 87.3365 182.892 87.2455 182.815C87.1569 182.738 87.0857 182.641 87.032 182.525C86.9807 182.406 86.955 182.266 86.955 182.105C86.955 181.965 86.9935 181.83 87.0705 181.702C87.1475 181.571 87.2724 181.456 87.445 181.356C87.6177 181.255 87.8429 181.174 88.1205 181.111C88.3982 181.045 88.7389 181.008 89.1425 180.999V180.722C89.1425 180.447 89.083 180.239 88.964 180.099C88.845 179.957 88.6712 179.886 88.4425 179.886C88.2885 179.886 88.159 179.905 88.054 179.945C87.9514 179.982 87.8615 180.026 87.7845 180.075C87.7099 180.121 87.6445 180.164 87.5885 180.204C87.5349 180.241 87.4812 180.26 87.4275 180.26C87.3855 180.26 87.3494 180.25 87.319 180.229C87.2887 180.205 87.263 180.177 87.242 180.145L87.13 179.945ZM91.3445 177.835V182.99H90.7215V177.835H91.3445ZM94.4198 180.029C94.3918 180.08 94.3487 180.106 94.2903 180.106C94.2553 180.106 94.2157 180.093 94.1713 180.068C94.127 180.042 94.0722 180.014 94.0068 179.984C93.9438 179.951 93.868 179.922 93.7793 179.896C93.6907 179.868 93.5857 179.854 93.4643 179.854C93.3593 179.854 93.2648 179.868 93.1808 179.896C93.0968 179.922 93.0245 179.958 92.9638 180.005C92.9055 180.051 92.86 180.106 92.8273 180.169C92.797 180.23 92.7818 180.296 92.7818 180.369C92.7818 180.46 92.8075 180.535 92.8588 180.596C92.9125 180.657 92.9825 180.709 93.0688 180.754C93.1552 180.798 93.2532 180.838 93.3628 180.873C93.4725 180.905 93.5845 180.941 93.6988 180.981C93.8155 181.018 93.9287 181.06 94.0383 181.107C94.148 181.154 94.246 181.212 94.3323 181.282C94.4187 181.352 94.4875 181.438 94.5388 181.541C94.5925 181.641 94.6193 181.763 94.6193 181.905C94.6193 182.068 94.5902 182.22 94.5318 182.36C94.4735 182.498 94.3872 182.618 94.2728 182.721C94.1585 182.821 94.0185 182.9 93.8528 182.959C93.6872 183.017 93.4958 183.046 93.2788 183.046C93.0315 183.046 92.8075 183.006 92.6068 182.927C92.4062 182.845 92.2358 182.742 92.0958 182.616L92.2428 182.378C92.2615 182.347 92.2837 182.324 92.3093 182.308C92.335 182.291 92.3677 182.283 92.4073 182.283C92.4493 182.283 92.4937 182.299 92.5403 182.332C92.587 182.365 92.643 182.401 92.7083 182.441C92.776 182.48 92.8577 182.516 92.9533 182.549C93.049 182.582 93.168 182.598 93.3103 182.598C93.4317 182.598 93.5378 182.583 93.6288 182.553C93.7198 182.52 93.7957 182.477 93.8563 182.423C93.917 182.369 93.9613 182.308 93.9893 182.238C94.0197 182.168 94.0348 182.093 94.0348 182.014C94.0348 181.916 94.008 181.835 93.9543 181.772C93.903 181.707 93.8342 181.652 93.7478 181.608C93.6615 181.561 93.5623 181.521 93.4503 181.489C93.3407 181.454 93.2275 181.417 93.1108 181.38C92.9965 181.343 92.8833 181.301 92.7713 181.254C92.6617 181.205 92.5637 181.144 92.4773 181.072C92.391 181 92.321 180.911 92.2673 180.806C92.216 180.699 92.1903 180.569 92.1903 180.418C92.1903 180.282 92.2183 180.153 92.2743 180.029C92.3303 179.903 92.412 179.793 92.5193 179.7C92.6267 179.604 92.7585 179.529 92.9148 179.473C93.0712 179.417 93.2497 179.389 93.4503 179.389C93.6837 179.389 93.8925 179.426 94.0768 179.501C94.2635 179.573 94.4245 179.673 94.5598 179.802L94.4198 180.029ZM100.055 179.445L98.0779 184.037C98.0569 184.083 98.0301 184.121 97.9974 184.149C97.9671 184.177 97.9193 184.191 97.8539 184.191H97.3919L98.0394 182.784L96.5764 179.445H97.1154C97.1691 179.445 97.2111 179.459 97.2414 179.487C97.2741 179.512 97.2963 179.541 97.3079 179.574L98.2564 181.807C98.2938 181.905 98.3253 182.008 98.3509 182.115C98.3836 182.005 98.4186 181.902 98.4559 181.804L99.3764 179.574C99.3904 179.537 99.4138 179.506 99.4464 179.483C99.4814 179.457 99.5199 179.445 99.5619 179.445H100.055ZM102.005 179.389C102.264 179.389 102.497 179.432 102.705 179.518C102.912 179.604 103.09 179.727 103.237 179.886C103.384 180.044 103.496 180.237 103.573 180.463C103.652 180.687 103.692 180.938 103.692 181.216C103.692 181.496 103.652 181.748 103.573 181.972C103.496 182.196 103.384 182.387 103.237 182.546C103.09 182.704 102.912 182.827 102.705 182.913C102.497 182.997 102.264 183.039 102.005 183.039C101.743 183.039 101.508 182.997 101.298 182.913C101.09 182.827 100.913 182.704 100.766 182.546C100.619 182.387 100.505 182.196 100.426 181.972C100.349 181.748 100.311 181.496 100.311 181.216C100.311 180.938 100.349 180.687 100.426 180.463C100.505 180.237 100.619 180.044 100.766 179.886C100.913 179.727 101.09 179.604 101.298 179.518C101.508 179.432 101.743 179.389 102.005 179.389ZM102.005 182.553C102.355 182.553 102.616 182.436 102.789 182.203C102.961 181.967 103.048 181.639 103.048 181.219C103.048 180.797 102.961 180.468 102.789 180.232C102.616 179.996 102.355 179.879 102.005 179.879C101.827 179.879 101.672 179.909 101.539 179.97C101.408 180.03 101.299 180.118 101.21 180.232C101.124 180.346 101.058 180.488 101.014 180.656C100.972 180.821 100.951 181.009 100.951 181.219C100.951 181.639 101.037 181.967 101.21 182.203C101.385 182.436 101.65 182.553 102.005 182.553ZM107.397 179.445V182.99H107.026C106.938 182.99 106.882 182.947 106.858 182.861L106.809 182.479C106.655 182.649 106.483 182.787 106.291 182.892C106.1 182.995 105.881 183.046 105.633 183.046C105.44 183.046 105.268 183.015 105.119 182.952C104.972 182.886 104.848 182.795 104.748 182.679C104.647 182.562 104.572 182.421 104.52 182.255C104.471 182.089 104.447 181.906 104.447 181.706V179.445H105.07V181.706C105.07 181.974 105.13 182.182 105.252 182.329C105.375 182.476 105.563 182.549 105.815 182.549C106 182.549 106.171 182.506 106.33 182.42C106.491 182.331 106.639 182.21 106.774 182.056V179.445H107.397ZM110.82 177.835V182.99H110.197V177.835H110.82ZM112.488 179.445V182.99H111.865V179.445H112.488ZM112.621 178.332C112.621 178.392 112.609 178.449 112.583 178.503C112.56 178.554 112.527 178.601 112.485 178.643C112.445 178.683 112.397 178.714 112.341 178.738C112.288 178.761 112.231 178.773 112.17 178.773C112.109 178.773 112.052 178.761 111.998 178.738C111.947 178.714 111.902 178.683 111.862 178.643C111.822 178.601 111.791 178.554 111.767 178.503C111.744 178.449 111.732 178.392 111.732 178.332C111.732 178.271 111.744 178.214 111.767 178.16C111.791 178.104 111.822 178.056 111.862 178.017C111.902 177.975 111.947 177.942 111.998 177.919C112.052 177.895 112.109 177.884 112.17 177.884C112.231 177.884 112.288 177.895 112.341 177.919C112.397 177.942 112.445 177.975 112.485 178.017C112.527 178.056 112.56 178.104 112.583 178.16C112.609 178.214 112.621 178.271 112.621 178.332ZM114.139 177.835V180.869H114.3C114.346 180.869 114.385 180.863 114.415 180.852C114.448 180.838 114.482 180.811 114.517 180.771L115.637 179.571C115.669 179.531 115.703 179.501 115.738 179.48C115.775 179.456 115.824 179.445 115.885 179.445H116.449L115.143 180.834C115.08 180.913 115.012 180.975 114.94 181.02C114.982 181.048 115.019 181.08 115.052 181.118C115.087 181.153 115.12 181.193 115.15 181.24L116.536 182.99H115.98C115.926 182.99 115.879 182.982 115.84 182.966C115.802 182.947 115.77 182.914 115.742 182.868L114.576 181.415C114.541 181.366 114.506 181.335 114.471 181.321C114.438 181.304 114.387 181.296 114.317 181.296H114.139V182.99H113.512V177.835H114.139ZM119.242 180.831C119.242 180.686 119.221 180.554 119.179 180.435C119.139 180.314 119.079 180.21 119 180.124C118.923 180.035 118.829 179.967 118.717 179.921C118.605 179.872 118.477 179.847 118.335 179.847C118.036 179.847 117.8 179.935 117.625 180.11C117.452 180.282 117.345 180.523 117.303 180.831H119.242ZM119.746 182.493C119.669 182.586 119.576 182.668 119.469 182.738C119.362 182.806 119.246 182.862 119.123 182.906C119.001 182.95 118.875 182.983 118.745 183.004C118.614 183.027 118.484 183.039 118.356 183.039C118.111 183.039 117.885 182.998 117.677 182.917C117.472 182.833 117.293 182.711 117.142 182.553C116.992 182.392 116.876 182.193 116.792 181.958C116.708 181.722 116.666 181.451 116.666 181.146C116.666 180.898 116.703 180.667 116.778 180.453C116.855 180.238 116.964 180.052 117.107 179.896C117.249 179.737 117.423 179.614 117.628 179.525C117.833 179.434 118.064 179.389 118.321 179.389C118.533 179.389 118.729 179.425 118.909 179.497C119.091 179.567 119.247 179.67 119.378 179.805C119.511 179.938 119.615 180.104 119.69 180.302C119.764 180.498 119.802 180.722 119.802 180.974C119.802 181.072 119.791 181.137 119.77 181.17C119.749 181.203 119.709 181.219 119.651 181.219H117.282C117.289 181.443 117.319 181.638 117.373 181.804C117.429 181.969 117.506 182.108 117.604 182.22C117.702 182.33 117.818 182.413 117.954 182.469C118.089 182.522 118.241 182.549 118.409 182.549C118.565 182.549 118.699 182.532 118.811 182.497C118.925 182.459 119.023 182.42 119.105 182.378C119.187 182.336 119.254 182.297 119.308 182.262C119.364 182.225 119.412 182.206 119.452 182.206C119.503 182.206 119.543 182.226 119.571 182.266L119.746 182.493ZM120.462 182.605C120.462 182.544 120.472 182.487 120.493 182.434C120.517 182.38 120.547 182.333 120.584 182.294C120.624 182.254 120.671 182.222 120.724 182.199C120.778 182.176 120.835 182.164 120.896 182.164C120.956 182.164 121.014 182.176 121.067 182.199C121.121 182.222 121.168 182.254 121.207 182.294C121.247 182.333 121.278 182.38 121.302 182.434C121.325 182.487 121.337 182.544 121.337 182.605C121.337 182.668 121.325 182.726 121.302 182.78C121.278 182.831 121.247 182.877 121.207 182.917C121.168 182.956 121.121 182.987 121.067 183.008C121.014 183.031 120.956 183.043 120.896 183.043C120.835 183.043 120.778 183.031 120.724 183.008C120.671 182.987 120.624 182.956 120.584 182.917C120.547 182.877 120.517 182.831 120.493 182.78C120.472 182.726 120.462 182.668 120.462 182.605Z" fill="#A0A0A0"/>
</svg>
