<svg width="171" height="216" viewBox="0 0 171 216" fill="none" xmlns="http://www.w3.org/2000/svg">
<path d="M105.66 61.42C97.2899 61.42 88.77 61.08 80.7999 58.86C72.9799 56.69 65.7999 52.48 59.3999 47.61C55.2099 44.44 51.3999 41.92 45.9599 42.3C40.6335 42.5916 35.5423 44.5901 31.4399 48C24.5199 54 25.5599 65.23 28.3299 73.12C32.4899 85 45.1499 93.23 55.9099 98.61C68.34 104.82 82 108.42 95.6899 110.5C107.69 112.32 123.11 113.65 133.51 105.81C143.06 98.61 145.68 82.17 143.34 71.07C142.773 67.7879 141.027 64.8257 138.43 62.74C131.72 57.84 121.71 61.11 114.17 61.28C111.37 61.34 108.52 61.41 105.66 61.42Z" fill="#F2F2F2"/>
<path d="M85.18 129.95C105.454 129.95 121.89 128.925 121.89 127.66C121.89 126.395 105.454 125.37 85.18 125.37C64.9056 125.37 48.47 126.395 48.47 127.66C48.47 128.925 64.9056 129.95 85.18 129.95Z" fill="#F2F2F2"/>
<path d="M129.1 42.95V47.2599" stroke="#BABABA" stroke-linecap="round" stroke-linejoin="round"/>
<path d="M126.94 45.1H131.25" stroke="#BABABA" stroke-linecap="round" stroke-linejoin="round"/>
<path d="M76.9099 24.37V28.68" stroke="#BABABA" stroke-linecap="round" stroke-linejoin="round"/>
<path d="M74.76 26.52H79.06" stroke="#BABABA" stroke-linecap="round" stroke-linejoin="round"/>
<path d="M45.51 99.05V103.36" stroke="#BABABA" stroke-linecap="round" stroke-linejoin="round"/>
<path d="M43.3501 101.2H47.6601" stroke="#BABABA" stroke-linecap="round" stroke-linejoin="round"/>
<path d="M113.66 85.55L115 96.15C115.139 97.2556 114.834 98.3712 114.151 99.2522C113.469 100.133 112.465 100.708 111.36 100.85L65.3599 106.75C64.2543 106.889 63.1387 106.584 62.2577 105.901C61.3767 105.219 60.8021 104.215 60.6599 103.11L59.2999 92.51C59.19 91.6006 59.2998 90.6782 59.6199 89.82L68.1699 67.22L67.4099 61.22C67.3819 61.0117 67.3954 60.7999 67.4498 60.5968C67.5041 60.3938 67.5981 60.2035 67.7265 60.0371C67.8548 59.8706 68.0149 59.7312 68.1974 59.627C68.3799 59.5228 68.5813 59.4558 68.7899 59.43L71.9999 59C72.4213 58.9489 72.8457 59.0664 73.1809 59.3267C73.5161 59.587 73.735 59.9691 73.7899 60.39L74.5599 66.39L92.1599 64.13L91.3899 58.13C91.3633 57.9211 91.3782 57.7091 91.4337 57.506C91.4892 57.3029 91.5842 57.1127 91.7134 56.9464C91.8425 56.7801 92.0032 56.641 92.1862 56.5369C92.3692 56.4328 92.571 56.3659 92.7799 56.34L95.9799 55.92C96.4024 55.8688 96.828 55.9859 97.1648 56.246C97.5016 56.5061 97.7226 56.8883 97.7799 57.31L98.5399 63.31H98.6799L112.68 83.02C113.207 83.7716 113.543 84.6397 113.66 85.55Z" fill="white" stroke="#BABABA" stroke-linecap="round" stroke-linejoin="round"/>
<path d="M43.9399 68.12C51.4599 69.67 58.0299 67.8 64.0699 63.63C65.7699 68.95 64.0699 73.05 58.9999 75.09C56.4033 76.0961 53.6615 76.6769 50.8799 76.81C46.0499 77 44.0999 74.46 43.9399 68.12Z" fill="#D2D2D2"/>
<path d="M123.61 57.91C116.73 61.31 109.9 61.15 103 58.64C102.69 64.22 105.36 67.77 110.8 68.45C113.562 68.774 116.359 68.6456 119.08 68.07C123.82 67.08 125.06 64.08 123.61 57.91Z" fill="#D2D2D2"/>
<path d="M123.69 57.82C116.69 61.54 110.27 61.23 103.79 58.76C103.34 58.59 102.71 58.22 102.64 57.85C101.91 54.2 98.2701 53.15 95.0101 53C86.6807 52.6585 78.3535 53.7268 70.3801 56.16C67.2601 57.16 64.0001 59.06 64.2201 62.77C64.2201 63.15 63.7301 63.66 63.3301 63.94C57.6901 67.94 51.5601 69.88 43.8401 68.05C45.0101 63.68 46.0901 59.44 47.3501 55.24C47.5601 54.58 48.5401 54.02 49.2901 53.66C58.8496 48.9444 69.1144 45.8201 79.6801 44.41C80.8001 44.24 81.9201 44.1 83.0401 43.98C93.6262 42.6826 104.353 43.1149 114.8 45.26C115.6 45.43 116.7 45.72 117.06 46.31C119.34 50.05 121.46 53.89 123.69 57.82Z" fill="white" stroke="#BABABA" stroke-linecap="round" stroke-linejoin="round"/>
<path d="M78.2105 74.602L73.2014 75.2437L73.8431 80.2527L78.8522 79.611L78.2105 74.602Z" fill="#D2D2D2"/>
<path d="M87.0154 73.4717L82.0063 74.1134L82.648 79.1225L87.6571 78.4808L87.0154 73.4717Z" fill="#D2D2D2"/>
<path d="M95.8404 72.3401L90.8313 72.9818L91.473 77.9909L96.482 77.3492L95.8404 72.3401Z" fill="#D2D2D2"/>
<path d="M79.2879 83.0761L74.2788 83.7178L74.9205 88.7268L79.9295 88.0852L79.2879 83.0761Z" fill="#D2D2D2"/>
<path d="M88.1028 81.9445L83.0938 82.5862L83.7354 87.5953L88.7445 86.9536L88.1028 81.9445Z" fill="#D2D2D2"/>
<path d="M96.9178 80.8143L91.9087 81.4559L92.5504 86.465L97.5594 85.8233L96.9178 80.8143Z" fill="#D2D2D2"/>
<path d="M84.5601 115.46C85.1013 115.46 85.5401 115.021 85.5401 114.48C85.5401 113.939 85.1013 113.5 84.5601 113.5C84.0188 113.5 83.5801 113.939 83.5801 114.48C83.5801 115.021 84.0188 115.46 84.5601 115.46Z" fill="#CFCFCF"/>
<path d="M108.35 39.8C108.891 39.8 109.33 39.3612 109.33 38.82C109.33 38.2787 108.891 37.84 108.35 37.84C107.809 37.84 107.37 38.2787 107.37 38.82C107.37 39.3612 107.809 39.8 108.35 39.8Z" fill="#CFCFCF"/>
<path d="M61.5501 40.2C62.0913 40.2 62.5301 39.7612 62.5301 39.22C62.5301 38.6788 62.0913 38.24 61.5501 38.24C61.0088 38.24 60.5701 38.6788 60.5701 39.22C60.5701 39.7612 61.0088 40.2 61.5501 40.2Z" fill="#CFCFCF"/>
<path d="M58.7799 160.32V167.55H58.0899C57.9832 167.55 57.8932 167.533 57.8199 167.5C57.7499 167.463 57.6815 167.403 57.6149 167.32L53.8399 162.5C53.8599 162.72 53.8699 162.923 53.8699 163.11V167.55H52.6849V160.32H53.3899C53.4465 160.32 53.4949 160.323 53.5349 160.33C53.5782 160.333 53.6149 160.343 53.6449 160.36C53.6782 160.373 53.7099 160.395 53.7399 160.425C53.7699 160.452 53.8032 160.488 53.8399 160.535L57.6299 165.375C57.6199 165.258 57.6115 165.143 57.6049 165.03C57.5982 164.917 57.5949 164.812 57.5949 164.715V160.32H58.7799ZM62.3087 162.34C62.6887 162.34 63.0337 162.402 63.3437 162.525C63.657 162.648 63.9237 162.823 64.1437 163.05C64.367 163.277 64.5387 163.553 64.6587 163.88C64.7787 164.207 64.8387 164.572 64.8387 164.975C64.8387 165.382 64.7787 165.748 64.6587 166.075C64.5387 166.402 64.367 166.68 64.1437 166.91C63.9237 167.14 63.657 167.317 63.3437 167.44C63.0337 167.563 62.6887 167.625 62.3087 167.625C61.9254 167.625 61.577 167.563 61.2637 167.44C60.9504 167.317 60.682 167.14 60.4587 166.91C60.2387 166.68 60.067 166.402 59.9437 166.075C59.8237 165.748 59.7637 165.382 59.7637 164.975C59.7637 164.572 59.8237 164.207 59.9437 163.88C60.067 163.553 60.2387 163.277 60.4587 163.05C60.682 162.823 60.9504 162.648 61.2637 162.525C61.577 162.402 61.9254 162.34 62.3087 162.34ZM62.3087 166.675C62.7354 166.675 63.0504 166.532 63.2537 166.245C63.4604 165.958 63.5637 165.538 63.5637 164.985C63.5637 164.432 63.4604 164.01 63.2537 163.72C63.0504 163.43 62.7354 163.285 62.3087 163.285C61.8754 163.285 61.5537 163.432 61.3437 163.725C61.137 164.015 61.0337 164.435 61.0337 164.985C61.0337 165.535 61.137 165.955 61.3437 166.245C61.5537 166.532 61.8754 166.675 62.3087 166.675ZM75.3025 163.935C75.3025 164.465 75.2142 164.957 75.0375 165.41C74.8642 165.86 74.6175 166.25 74.2975 166.58C73.9775 166.91 73.5925 167.168 73.1425 167.355C72.6925 167.538 72.1925 167.63 71.6425 167.63C71.0959 167.63 70.5975 167.538 70.1475 167.355C69.6975 167.168 69.3109 166.91 68.9875 166.58C68.6675 166.25 68.4192 165.86 68.2425 165.41C68.0659 164.957 67.9775 164.465 67.9775 163.935C67.9775 163.405 68.0659 162.915 68.2425 162.465C68.4192 162.012 68.6675 161.62 68.9875 161.29C69.3109 160.96 69.6975 160.703 70.1475 160.52C70.5975 160.333 71.0959 160.24 71.6425 160.24C72.0092 160.24 72.3542 160.283 72.6775 160.37C73.0009 160.453 73.2975 160.573 73.5675 160.73C73.8375 160.883 74.0792 161.072 74.2925 161.295C74.5092 161.515 74.6925 161.762 74.8425 162.035C74.9925 162.308 75.1059 162.605 75.1825 162.925C75.2625 163.245 75.3025 163.582 75.3025 163.935ZM73.9275 163.935C73.9275 163.538 73.8742 163.183 73.7675 162.87C73.6609 162.553 73.5092 162.285 73.3125 162.065C73.1159 161.845 72.8759 161.677 72.5925 161.56C72.3125 161.443 71.9959 161.385 71.6425 161.385C71.2892 161.385 70.9709 161.443 70.6875 161.56C70.4075 161.677 70.1675 161.845 69.9675 162.065C69.7709 162.285 69.6192 162.553 69.5125 162.87C69.4059 163.183 69.3525 163.538 69.3525 163.935C69.3525 164.332 69.4059 164.688 69.5125 165.005C69.6192 165.318 69.7709 165.585 69.9675 165.805C70.1675 166.022 70.4075 166.188 70.6875 166.305C70.9709 166.422 71.2892 166.48 71.6425 166.48C71.9959 166.48 72.3125 166.422 72.5925 166.305C72.8759 166.188 73.1159 166.022 73.3125 165.805C73.5092 165.585 73.6609 165.318 73.7675 165.005C73.8742 164.688 73.9275 164.332 73.9275 163.935ZM77.3658 163.31C77.5258 163.003 77.7158 162.763 77.9358 162.59C78.1558 162.413 78.4158 162.325 78.7158 162.325C78.9525 162.325 79.1425 162.377 79.2858 162.48L79.2058 163.405C79.1892 163.465 79.1642 163.508 79.1308 163.535C79.1008 163.558 79.0592 163.57 79.0058 163.57C78.9558 163.57 78.8808 163.562 78.7808 163.545C78.6842 163.528 78.5892 163.52 78.4958 163.52C78.3592 163.52 78.2375 163.54 78.1308 163.58C78.0242 163.62 77.9275 163.678 77.8408 163.755C77.7575 163.828 77.6825 163.918 77.6158 164.025C77.5525 164.132 77.4925 164.253 77.4358 164.39V167.55H76.2008V162.42H76.9258C77.0525 162.42 77.1408 162.443 77.1908 162.49C77.2408 162.533 77.2742 162.613 77.2908 162.73L77.3658 163.31ZM83.0146 163.73C82.8746 163.56 82.7212 163.44 82.5546 163.37C82.3912 163.3 82.2146 163.265 82.0246 163.265C81.8379 163.265 81.6696 163.3 81.5196 163.37C81.3696 163.44 81.2412 163.547 81.1346 163.69C81.0279 163.83 80.9462 164.01 80.8896 164.23C80.8329 164.447 80.8046 164.703 80.8046 165C80.8046 165.3 80.8279 165.555 80.8746 165.765C80.9246 165.972 80.9946 166.142 81.0846 166.275C81.1746 166.405 81.2846 166.5 81.4146 166.56C81.5446 166.617 81.6896 166.645 81.8496 166.645C82.1062 166.645 82.3246 166.592 82.5046 166.485C82.6846 166.378 82.8546 166.227 83.0146 166.03V163.73ZM84.2496 160.12V167.55H83.4946C83.3312 167.55 83.2279 167.475 83.1846 167.325L83.0796 166.83C82.8729 167.067 82.6346 167.258 82.3646 167.405C82.0979 167.552 81.7862 167.625 81.4296 167.625C81.1496 167.625 80.8929 167.567 80.6596 167.45C80.4262 167.333 80.2246 167.165 80.0546 166.945C79.8879 166.722 79.7579 166.447 79.6646 166.12C79.5746 165.793 79.5296 165.42 79.5296 165C79.5296 164.62 79.5812 164.267 79.6846 163.94C79.7879 163.613 79.9362 163.33 80.1296 163.09C80.3229 162.85 80.5546 162.663 80.8246 162.53C81.0946 162.393 81.3979 162.325 81.7346 162.325C82.0212 162.325 82.2662 162.37 82.4696 162.46C82.6729 162.55 82.8546 162.672 83.0146 162.825V160.12H84.2496ZM88.7734 164.395C88.7734 164.235 88.7501 164.085 88.7034 163.945C88.6601 163.802 88.5934 163.677 88.5034 163.57C88.4134 163.463 88.2984 163.38 88.1584 163.32C88.0217 163.257 87.8617 163.225 87.6784 163.225C87.3217 163.225 87.0401 163.327 86.8334 163.53C86.6301 163.733 86.5001 164.022 86.4434 164.395H88.7734ZM86.4184 165.14C86.4384 165.403 86.4851 165.632 86.5584 165.825C86.6317 166.015 86.7284 166.173 86.8484 166.3C86.9684 166.423 87.1101 166.517 87.2734 166.58C87.4401 166.64 87.6234 166.67 87.8234 166.67C88.0234 166.67 88.1951 166.647 88.3384 166.6C88.4851 166.553 88.6117 166.502 88.7184 166.445C88.8284 166.388 88.9234 166.337 89.0034 166.29C89.0867 166.243 89.1667 166.22 89.2434 166.22C89.3467 166.22 89.4234 166.258 89.4734 166.335L89.8284 166.785C89.6917 166.945 89.5384 167.08 89.3684 167.19C89.1984 167.297 89.0201 167.383 88.8334 167.45C88.6501 167.513 88.4617 167.558 88.2684 167.585C88.0784 167.612 87.8934 167.625 87.7134 167.625C87.3567 167.625 87.0251 167.567 86.7184 167.45C86.4117 167.33 86.1451 167.155 85.9184 166.925C85.6917 166.692 85.5134 166.405 85.3834 166.065C85.2534 165.722 85.1884 165.325 85.1884 164.875C85.1884 164.525 85.2451 164.197 85.3584 163.89C85.4717 163.58 85.6334 163.312 85.8434 163.085C86.0567 162.855 86.3151 162.673 86.6184 162.54C86.9251 162.407 87.2701 162.34 87.6534 162.34C87.9767 162.34 88.2751 162.392 88.5484 162.495C88.8217 162.598 89.0567 162.75 89.2534 162.95C89.4501 163.147 89.6034 163.39 89.7134 163.68C89.8267 163.967 89.8834 164.295 89.8834 164.665C89.8834 164.852 89.8634 164.978 89.8234 165.045C89.7834 165.108 89.7067 165.14 89.5934 165.14H86.4184ZM91.9752 163.31C92.1352 163.003 92.3252 162.763 92.5452 162.59C92.7652 162.413 93.0252 162.325 93.3252 162.325C93.5619 162.325 93.7519 162.377 93.8952 162.48L93.8152 163.405C93.7985 163.465 93.7735 163.508 93.7402 163.535C93.7102 163.558 93.6685 163.57 93.6152 163.57C93.5652 163.57 93.4902 163.562 93.3902 163.545C93.2935 163.528 93.1985 163.52 93.1052 163.52C92.9685 163.52 92.8469 163.54 92.7402 163.58C92.6335 163.62 92.5369 163.678 92.4502 163.755C92.3669 163.828 92.2919 163.918 92.2252 164.025C92.1619 164.132 92.1019 164.253 92.0452 164.39V167.55H90.8102V162.42H91.5352C91.6619 162.42 91.7502 162.443 91.8002 162.49C91.8502 162.533 91.8835 162.613 91.9002 162.73L91.9752 163.31ZM97.6511 163.42C97.6178 163.473 97.5828 163.512 97.5461 163.535C97.5095 163.555 97.4628 163.565 97.4061 163.565C97.3461 163.565 97.2811 163.548 97.2111 163.515C97.1445 163.482 97.0661 163.445 96.9761 163.405C96.8861 163.362 96.7828 163.323 96.6661 163.29C96.5528 163.257 96.4178 163.24 96.2611 163.24C96.0178 163.24 95.8261 163.292 95.6861 163.395C95.5495 163.498 95.4811 163.633 95.4811 163.8C95.4811 163.91 95.5161 164.003 95.5861 164.08C95.6595 164.153 95.7545 164.218 95.8711 164.275C95.9911 164.332 96.1261 164.383 96.2761 164.43C96.4261 164.473 96.5778 164.522 96.7311 164.575C96.8878 164.628 97.0411 164.69 97.1911 164.76C97.3411 164.827 97.4745 164.913 97.5911 165.02C97.7111 165.123 97.8061 165.248 97.8761 165.395C97.9495 165.542 97.9861 165.718 97.9861 165.925C97.9861 166.172 97.9411 166.4 97.8511 166.61C97.7645 166.817 97.6345 166.997 97.4611 167.15C97.2878 167.3 97.0728 167.418 96.8161 167.505C96.5628 167.588 96.2695 167.63 95.9361 167.63C95.7595 167.63 95.5861 167.613 95.4161 167.58C95.2495 167.55 95.0878 167.507 94.9311 167.45C94.7778 167.393 94.6345 167.327 94.5011 167.25C94.3711 167.173 94.2561 167.09 94.1561 167L94.4411 166.53C94.4778 166.473 94.5211 166.43 94.5711 166.4C94.6211 166.37 94.6845 166.355 94.7611 166.355C94.8378 166.355 94.9095 166.377 94.9761 166.42C95.0461 166.463 95.1261 166.51 95.2161 166.56C95.3061 166.61 95.4111 166.657 95.5311 166.7C95.6545 166.743 95.8095 166.765 95.9961 166.765C96.1428 166.765 96.2678 166.748 96.3711 166.715C96.4778 166.678 96.5645 166.632 96.6311 166.575C96.7011 166.518 96.7511 166.453 96.7811 166.38C96.8145 166.303 96.8311 166.225 96.8311 166.145C96.8311 166.025 96.7945 165.927 96.7211 165.85C96.6511 165.773 96.5561 165.707 96.4361 165.65C96.3195 165.593 96.1845 165.543 96.0311 165.5C95.8811 165.453 95.7261 165.403 95.5661 165.35C95.4095 165.297 95.2545 165.235 95.1011 165.165C94.9511 165.092 94.8161 165 94.6961 164.89C94.5795 164.78 94.4845 164.645 94.4111 164.485C94.3411 164.325 94.3061 164.132 94.3061 163.905C94.3061 163.695 94.3478 163.495 94.4311 163.305C94.5145 163.115 94.6361 162.95 94.7961 162.81C94.9595 162.667 95.1611 162.553 95.4011 162.47C95.6445 162.383 95.9245 162.34 96.2411 162.34C96.5945 162.34 96.9161 162.398 97.2061 162.515C97.4961 162.632 97.7378 162.785 97.9311 162.975L97.6511 163.42ZM102.892 161.39V163.53H105.602V164.605H102.892V167.55H101.542V160.32H106.102V161.39H102.892ZM108.832 162.34C109.212 162.34 109.557 162.402 109.867 162.525C110.18 162.648 110.447 162.823 110.667 163.05C110.89 163.277 111.062 163.553 111.182 163.88C111.302 164.207 111.362 164.572 111.362 164.975C111.362 165.382 111.302 165.748 111.182 166.075C111.062 166.402 110.89 166.68 110.667 166.91C110.447 167.14 110.18 167.317 109.867 167.44C109.557 167.563 109.212 167.625 108.832 167.625C108.449 167.625 108.1 167.563 107.787 167.44C107.474 167.317 107.205 167.14 106.982 166.91C106.762 166.68 106.59 166.402 106.467 166.075C106.347 165.748 106.287 165.382 106.287 164.975C106.287 164.572 106.347 164.207 106.467 163.88C106.59 163.553 106.762 163.277 106.982 163.05C107.205 162.823 107.474 162.648 107.787 162.525C108.1 162.402 108.449 162.34 108.832 162.34ZM108.832 166.675C109.259 166.675 109.574 166.532 109.777 166.245C109.984 165.958 110.087 165.538 110.087 164.985C110.087 164.432 109.984 164.01 109.777 163.72C109.574 163.43 109.259 163.285 108.832 163.285C108.399 163.285 108.077 163.432 107.867 163.725C107.66 164.015 107.557 164.435 107.557 164.985C107.557 165.535 107.66 165.955 107.867 166.245C108.077 166.532 108.399 166.675 108.832 166.675ZM116.724 162.42V167.55H115.969C115.806 167.55 115.703 167.475 115.659 167.325L115.574 166.915C115.364 167.128 115.133 167.302 114.879 167.435C114.626 167.565 114.328 167.63 113.984 167.63C113.704 167.63 113.456 167.583 113.239 167.49C113.026 167.393 112.846 167.258 112.699 167.085C112.553 166.912 112.441 166.707 112.364 166.47C112.291 166.23 112.254 165.967 112.254 165.68V162.42H113.489V165.68C113.489 165.993 113.561 166.237 113.704 166.41C113.851 166.58 114.069 166.665 114.359 166.665C114.573 166.665 114.773 166.618 114.959 166.525C115.146 166.428 115.323 166.297 115.489 166.13V162.42H116.724ZM119.104 163.05C119.207 162.947 119.316 162.852 119.429 162.765C119.546 162.675 119.667 162.6 119.794 162.54C119.924 162.477 120.062 162.428 120.209 162.395C120.356 162.358 120.516 162.34 120.689 162.34C120.969 162.34 121.217 162.388 121.434 162.485C121.651 162.578 121.831 162.712 121.974 162.885C122.121 163.055 122.231 163.26 122.304 163.5C122.381 163.737 122.419 163.998 122.419 164.285V167.55H121.184V164.285C121.184 163.972 121.112 163.73 120.969 163.56C120.826 163.387 120.607 163.3 120.314 163.3C120.101 163.3 119.901 163.348 119.714 163.445C119.527 163.542 119.351 163.673 119.184 163.84V167.55H117.949V162.42H118.704C118.864 162.42 118.969 162.495 119.019 162.645L119.104 163.05ZM126.813 163.73C126.673 163.56 126.52 163.44 126.353 163.37C126.19 163.3 126.013 163.265 125.823 163.265C125.637 163.265 125.468 163.3 125.318 163.37C125.168 163.44 125.04 163.547 124.933 163.69C124.827 163.83 124.745 164.01 124.688 164.23C124.632 164.447 124.603 164.703 124.603 165C124.603 165.3 124.627 165.555 124.673 165.765C124.723 165.972 124.793 166.142 124.883 166.275C124.973 166.405 125.083 166.5 125.213 166.56C125.343 166.617 125.488 166.645 125.648 166.645C125.905 166.645 126.123 166.592 126.303 166.485C126.483 166.378 126.653 166.227 126.813 166.03V163.73ZM128.048 160.12V167.55H127.293C127.13 167.55 127.027 167.475 126.983 167.325L126.878 166.83C126.672 167.067 126.433 167.258 126.163 167.405C125.897 167.552 125.585 167.625 125.228 167.625C124.948 167.625 124.692 167.567 124.458 167.45C124.225 167.333 124.023 167.165 123.853 166.945C123.687 166.722 123.557 166.447 123.463 166.12C123.373 165.793 123.328 165.42 123.328 165C123.328 164.62 123.38 164.267 123.483 163.94C123.587 163.613 123.735 163.33 123.928 163.09C124.122 162.85 124.353 162.663 124.623 162.53C124.893 162.393 125.197 162.325 125.533 162.325C125.82 162.325 126.065 162.37 126.268 162.46C126.472 162.55 126.653 162.672 126.813 162.825V160.12H128.048Z" fill="#939090"/>
<path d="M31.179 175.909H31.8849L33.2969 178.286H33.3565L34.7685 175.909H35.4744L33.6349 178.902V181H33.0185V178.902L31.179 175.909ZM37.2033 181.08C36.8586 181.08 36.5562 180.998 36.296 180.833C36.0375 180.669 35.8353 180.44 35.6895 180.145C35.5453 179.85 35.4732 179.505 35.4732 179.111C35.4732 178.713 35.5453 178.366 35.6895 178.069C35.8353 177.773 36.0375 177.542 36.296 177.378C36.5562 177.214 36.8586 177.132 37.2033 177.132C37.548 177.132 37.8496 177.214 38.1081 177.378C38.3683 177.542 38.5705 177.773 38.7147 178.069C38.8605 178.366 38.9334 178.713 38.9334 179.111C38.9334 179.505 38.8605 179.85 38.7147 180.145C38.5705 180.44 38.3683 180.669 38.1081 180.833C37.8496 180.998 37.548 181.08 37.2033 181.08ZM37.2033 180.553C37.4651 180.553 37.6806 180.485 37.8496 180.351C38.0186 180.217 38.1438 180.04 38.225 179.822C38.3062 179.603 38.3468 179.366 38.3468 179.111C38.3468 178.856 38.3062 178.618 38.225 178.397C38.1438 178.177 38.0186 177.999 37.8496 177.863C37.6806 177.727 37.4651 177.659 37.2033 177.659C36.9415 177.659 36.726 177.727 36.557 177.863C36.388 177.999 36.2628 178.177 36.1816 178.397C36.1004 178.618 36.0598 178.856 36.0598 179.111C36.0598 179.366 36.1004 179.603 36.1816 179.822C36.2628 180.04 36.388 180.217 36.557 180.351C36.726 180.485 36.9415 180.553 37.2033 180.553ZM42.2352 179.439V177.182H42.8218V181H42.2352V180.354H42.1954C42.1059 180.548 41.9667 180.712 41.7778 180.848C41.5889 180.983 41.3502 181.05 41.0619 181.05C40.8232 181.05 40.6111 180.998 40.4255 180.893C40.2399 180.787 40.0941 180.628 39.988 180.416C39.882 180.202 39.8289 179.933 39.8289 179.608V177.182H40.4156V179.568C40.4156 179.847 40.4935 180.069 40.6492 180.234C40.8067 180.4 41.0072 180.483 41.2508 180.483C41.3966 180.483 41.545 180.446 41.6958 180.371C41.8482 180.297 41.9758 180.182 42.0786 180.028C42.183 179.874 42.2352 179.678 42.2352 179.439ZM43.8963 181V177.182H44.4631V177.759H44.5028C44.5724 177.57 44.6984 177.416 44.8807 177.299C45.063 177.181 45.2685 177.122 45.4972 177.122C45.5402 177.122 45.5941 177.123 45.6587 177.125C45.7234 177.126 45.7723 177.129 45.8054 177.132V177.729C45.7855 177.724 45.7399 177.716 45.6687 177.706C45.5991 177.695 45.5253 177.689 45.4474 177.689C45.2618 177.689 45.0961 177.728 44.9503 177.806C44.8061 177.882 44.6918 177.988 44.6072 178.124C44.5244 178.258 44.483 178.411 44.483 178.584V181H43.8963ZM48.4695 181V177.182H49.0363V177.759H49.0761C49.1457 177.57 49.2716 177.416 49.4539 177.299C49.6362 177.181 49.8417 177.122 50.0704 177.122C50.1135 177.122 50.1673 177.123 50.232 177.125C50.2966 177.126 50.3455 177.129 50.3786 177.132V177.729C50.3588 177.724 50.3132 177.716 50.2419 177.706C50.1723 177.695 50.0986 177.689 50.0207 177.689C49.8351 177.689 49.6694 177.728 49.5235 177.806C49.3794 177.882 49.265 177.988 49.1805 178.124C49.0976 178.258 49.0562 178.411 49.0562 178.584V181H48.4695ZM52.5587 181.08C52.1908 181.08 51.8734 180.998 51.6066 180.836C51.3415 180.672 51.1368 180.443 50.9926 180.15C50.8501 179.855 50.7789 179.512 50.7789 179.121C50.7789 178.73 50.8501 178.385 50.9926 178.087C51.1368 177.787 51.3373 177.553 51.5942 177.386C51.8527 177.217 52.1543 177.132 52.499 177.132C52.6979 177.132 52.8943 177.165 53.0882 177.232C53.282 177.298 53.4585 177.406 53.6176 177.555C53.7767 177.702 53.9035 177.898 53.998 178.141C54.0924 178.385 54.1396 178.685 54.1396 179.041V179.29H51.1965V178.783H53.5431C53.5431 178.567 53.5 178.375 53.4138 178.206C53.3293 178.037 53.2083 177.904 53.0509 177.806C52.8951 177.708 52.7111 177.659 52.499 177.659C52.2654 177.659 52.0632 177.717 51.8925 177.833C51.7235 177.947 51.5934 178.097 51.5022 178.281C51.4111 178.464 51.3655 178.662 51.3655 178.872V179.21C51.3655 179.499 51.4152 179.743 51.5146 179.944C51.6157 180.142 51.7558 180.294 51.9347 180.398C52.1137 180.501 52.3217 180.553 52.5587 180.553C52.7128 180.553 52.852 180.531 52.9763 180.488C53.1022 180.443 53.2108 180.377 53.3019 180.289C53.3931 180.2 53.4635 180.089 53.5132 179.956L54.08 180.115C54.0203 180.307 53.9201 180.476 53.7792 180.622C53.6383 180.766 53.4643 180.879 53.2572 180.96C53.05 181.04 52.8172 181.08 52.5587 181.08ZM56.5832 181.08C56.2252 181.08 55.917 180.995 55.6585 180.826C55.3999 180.657 55.2011 180.424 55.0619 180.127C54.9227 179.831 54.8531 179.492 54.8531 179.111C54.8531 178.723 54.9243 178.381 55.0669 178.084C55.211 177.786 55.4115 177.553 55.6684 177.386C55.9269 177.217 56.2285 177.132 56.5732 177.132C56.8417 177.132 57.0837 177.182 57.2991 177.281C57.5145 177.381 57.691 177.52 57.8286 177.699C57.9661 177.878 58.0515 178.087 58.0846 178.325H57.498C57.4532 178.151 57.3538 177.997 57.1997 177.863C57.0472 177.727 56.8417 177.659 56.5832 177.659C56.3545 177.659 56.154 177.719 55.9816 177.838C55.8109 177.956 55.6775 178.122 55.5814 178.338C55.4869 178.551 55.4397 178.803 55.4397 179.091C55.4397 179.386 55.4861 179.643 55.5789 179.862C55.6734 180.08 55.806 180.25 55.9767 180.371C56.149 180.492 56.3512 180.553 56.5832 180.553C56.7356 180.553 56.874 180.526 56.9983 180.473C57.1226 180.42 57.2278 180.344 57.314 180.244C57.4002 180.145 57.4615 180.026 57.498 179.886H58.0846C58.0515 180.112 57.9694 180.315 57.8385 180.495C57.7093 180.674 57.5377 180.817 57.324 180.923C57.1118 181.027 56.8649 181.08 56.5832 181.08ZM60.5431 181.08C60.1752 181.08 59.8578 180.998 59.591 180.836C59.3258 180.672 59.1212 180.443 58.977 180.15C58.8345 179.855 58.7632 179.512 58.7632 179.121C58.7632 178.73 58.8345 178.385 58.977 178.087C59.1212 177.787 59.3217 177.553 59.5786 177.386C59.8371 177.217 60.1387 177.132 60.4834 177.132C60.6823 177.132 60.8786 177.165 61.0725 177.232C61.2664 177.298 61.4429 177.406 61.602 177.555C61.7611 177.702 61.8879 177.898 61.9823 178.141C62.0768 178.385 62.124 178.685 62.124 179.041V179.29H59.1808V178.783H61.5274C61.5274 178.567 61.4843 178.375 61.3982 178.206C61.3137 178.037 61.1927 177.904 61.0352 177.806C60.8795 177.708 60.6955 177.659 60.4834 177.659C60.2497 177.659 60.0476 177.717 59.8769 177.833C59.7078 177.947 59.5777 178.097 59.4866 178.281C59.3954 178.464 59.3499 178.662 59.3499 178.872V179.21C59.3499 179.499 59.3996 179.743 59.499 179.944C59.6001 180.142 59.7401 180.294 59.9191 180.398C60.0981 180.501 60.3061 180.553 60.5431 180.553C60.6972 180.553 60.8364 180.531 60.9607 180.488C61.0866 180.443 61.1952 180.377 61.2863 180.289C61.3775 180.2 61.4479 180.089 61.4976 179.956L62.0644 180.115C62.0047 180.307 61.9044 180.476 61.7636 180.622C61.6227 180.766 61.4487 180.879 61.2416 180.96C61.0344 181.04 60.8016 181.08 60.5431 181.08ZM63.6031 178.703V181H63.0164V177.182H63.5832V177.778H63.6329C63.7224 177.585 63.8583 177.429 64.0406 177.311C64.2229 177.192 64.4582 177.132 64.7465 177.132C65.0051 177.132 65.2313 177.185 65.4252 177.291C65.6191 177.396 65.7699 177.555 65.8776 177.768C65.9853 177.981 66.0392 178.249 66.0392 178.574V181H65.4525V178.614C65.4525 178.314 65.3746 178.08 65.2188 177.913C65.0631 177.744 64.8493 177.659 64.5775 177.659C64.3902 177.659 64.2229 177.7 64.0754 177.781C63.9295 177.862 63.8144 177.981 63.7298 178.136C63.6453 178.292 63.6031 178.481 63.6031 178.703ZM68.7717 177.182V177.679H66.793V177.182H68.7717ZM67.3697 176.267H67.9563V179.906C67.9563 180.072 67.9804 180.196 68.0284 180.279C68.0781 180.36 68.1411 180.415 68.2173 180.443C68.2952 180.47 68.3772 180.483 68.4634 180.483C68.5281 180.483 68.5811 180.48 68.6225 180.473C68.6639 180.465 68.6971 180.458 68.7219 180.453L68.8413 180.98C68.8015 180.995 68.746 181.01 68.6747 181.025C68.6035 181.041 68.5131 181.05 68.4038 181.05C68.238 181.05 68.0756 181.014 67.9165 180.943C67.7591 180.872 67.6282 180.763 67.5238 180.617C67.421 180.471 67.3697 180.287 67.3697 180.065V176.267ZM73.174 181.08C72.8293 181.08 72.5269 180.998 72.2667 180.833C72.0082 180.669 71.806 180.44 71.6602 180.145C71.516 179.85 71.4439 179.505 71.4439 179.111C71.4439 178.713 71.516 178.366 71.6602 178.069C71.806 177.773 72.0082 177.542 72.2667 177.378C72.5269 177.214 72.8293 177.132 73.174 177.132C73.5187 177.132 73.8203 177.214 74.0788 177.378C74.339 177.542 74.5412 177.773 74.6854 178.069C74.8312 178.366 74.9041 178.713 74.9041 179.111C74.9041 179.505 74.8312 179.85 74.6854 180.145C74.5412 180.44 74.339 180.669 74.0788 180.833C73.8203 180.998 73.5187 181.08 73.174 181.08ZM73.174 180.553C73.4358 180.553 73.6513 180.485 73.8203 180.351C73.9893 180.217 74.1145 180.04 74.1957 179.822C74.2769 179.603 74.3175 179.366 74.3175 179.111C74.3175 178.856 74.2769 178.618 74.1957 178.397C74.1145 178.177 73.9893 177.999 73.8203 177.863C73.6513 177.727 73.4358 177.659 73.174 177.659C72.9122 177.659 72.6967 177.727 72.5277 177.863C72.3587 177.999 72.2335 178.177 72.1523 178.397C72.0711 178.618 72.0305 178.856 72.0305 179.111C72.0305 179.366 72.0711 179.603 72.1523 179.822C72.2335 180.04 72.3587 180.217 72.5277 180.351C72.6967 180.485 72.9122 180.553 73.174 180.553ZM75.7996 181V177.182H76.3664V177.759H76.4062C76.4758 177.57 76.6017 177.416 76.784 177.299C76.9663 177.181 77.1718 177.122 77.4005 177.122C77.4436 177.122 77.4974 177.123 77.5621 177.125C77.6267 177.126 77.6756 177.129 77.7087 177.132V177.729C77.6888 177.724 77.6433 177.716 77.572 177.706C77.5024 177.695 77.4287 177.689 77.3508 177.689C77.1652 177.689 76.9994 177.728 76.8536 177.806C76.7094 177.882 76.5951 177.988 76.5106 178.124C76.4277 178.258 76.3863 178.411 76.3863 178.584V181H75.7996ZM79.7297 181.08C79.4115 181.08 79.1306 180.999 78.887 180.838C78.6434 180.676 78.4528 180.447 78.3153 180.152C78.1777 179.856 78.1089 179.505 78.1089 179.101C78.1089 178.7 78.1777 178.352 78.3153 178.057C78.4528 177.762 78.6442 177.534 78.8895 177.373C79.1347 177.212 79.4181 177.132 79.7396 177.132C79.9882 177.132 80.1846 177.174 80.3287 177.256C80.4746 177.338 80.5856 177.43 80.6618 177.535C80.7397 177.638 80.8002 177.722 80.8433 177.788H80.893V175.909H81.4797V181H80.9129V180.413H80.8433C80.8002 180.483 80.7389 180.571 80.6594 180.677C80.5798 180.781 80.4663 180.875 80.3188 180.958C80.1713 181.039 79.9749 181.08 79.7297 181.08ZM79.8092 180.553C80.0445 180.553 80.2434 180.491 80.4058 180.369C80.5682 180.244 80.6917 180.073 80.7762 179.854C80.8607 179.634 80.903 179.379 80.903 179.091C80.903 178.806 80.8615 178.556 80.7787 178.343C80.6958 178.127 80.5732 177.96 80.4108 177.841C80.2484 177.72 80.0479 177.659 79.8092 177.659C79.5606 177.659 79.3535 177.723 79.1878 177.85C79.0237 177.976 78.9002 178.148 78.8174 178.365C78.7362 178.58 78.6956 178.822 78.6956 179.091C78.6956 179.363 78.737 179.61 78.8199 179.832C78.9044 180.052 79.0287 180.228 79.1927 180.359C79.3585 180.488 79.564 180.553 79.8092 180.553ZM84.2364 181.08C83.8685 181.08 83.5512 180.998 83.2844 180.836C83.0192 180.672 82.8145 180.443 82.6704 180.15C82.5278 179.855 82.4566 179.512 82.4566 179.121C82.4566 178.73 82.5278 178.385 82.6704 178.087C82.8145 177.787 83.0151 177.553 83.2719 177.386C83.5305 177.217 83.8321 177.132 84.1768 177.132C84.3756 177.132 84.572 177.165 84.7659 177.232C84.9598 177.298 85.1363 177.406 85.2954 177.555C85.4545 177.702 85.5812 177.898 85.6757 178.141C85.7702 178.385 85.8174 178.685 85.8174 179.041V179.29H82.8742V178.783H85.2208C85.2208 178.567 85.1777 178.375 85.0915 178.206C85.007 178.037 84.886 177.904 84.7286 177.806C84.5728 177.708 84.3889 177.659 84.1768 177.659C83.9431 177.659 83.7409 177.717 83.5702 177.833C83.4012 177.947 83.2711 178.097 83.18 178.281C83.0888 178.464 83.0432 178.662 83.0432 178.872V179.21C83.0432 179.499 83.093 179.743 83.1924 179.944C83.2935 180.142 83.4335 180.294 83.6125 180.398C83.7915 180.501 83.9994 180.553 84.2364 180.553C84.3905 180.553 84.5297 180.531 84.654 180.488C84.78 180.443 84.8885 180.377 84.9797 180.289C85.0708 180.2 85.1412 180.089 85.191 179.956L85.7577 180.115C85.6981 180.307 85.5978 180.476 85.4569 180.622C85.3161 180.766 85.1421 180.879 84.9349 180.96C84.7278 181.04 84.4949 181.08 84.2364 181.08ZM86.7098 181V177.182H87.2765V177.759H87.3163C87.3859 177.57 87.5119 177.416 87.6942 177.299C87.8765 177.181 88.0819 177.122 88.3106 177.122C88.3537 177.122 88.4076 177.123 88.4722 177.125C88.5368 177.126 88.5857 177.129 88.6189 177.132V177.729C88.599 177.724 88.5534 177.716 88.4822 177.706C88.4126 177.695 88.3388 177.689 88.2609 177.689C88.0753 177.689 87.9096 177.728 87.7638 177.806C87.6196 177.882 87.5052 177.988 87.4207 178.124C87.3379 178.258 87.2964 178.411 87.2964 178.584V181H86.7098ZM92.0188 178.037L91.4918 178.186C91.4587 178.098 91.4098 178.013 91.3452 177.93C91.2822 177.846 91.196 177.776 91.0866 177.721C90.9773 177.667 90.8372 177.639 90.6665 177.639C90.4329 177.639 90.2382 177.693 90.0824 177.801C89.9283 177.907 89.8512 178.042 89.8512 178.206C89.8512 178.352 89.9042 178.467 90.0103 178.551C90.1164 178.636 90.2821 178.706 90.5075 178.763L91.0742 178.902C91.4156 178.985 91.67 179.112 91.8374 179.282C92.0047 179.451 92.0884 179.669 92.0884 179.936C92.0884 180.155 92.0254 180.35 91.8995 180.523C91.7752 180.695 91.6012 180.831 91.3775 180.93C91.1538 181.03 90.8936 181.08 90.5969 181.08C90.2075 181.08 89.8852 180.995 89.63 180.826C89.3748 180.657 89.2132 180.41 89.1452 180.085L89.7021 179.946C89.7551 180.152 89.8554 180.306 90.0028 180.408C90.152 180.511 90.3467 180.562 90.587 180.562C90.8604 180.562 91.0775 180.504 91.2383 180.388C91.4007 180.271 91.4819 180.13 91.4819 179.966C91.4819 179.833 91.4355 179.722 91.3427 179.633C91.2499 179.542 91.1074 179.474 90.9151 179.429L90.2788 179.28C89.9291 179.197 89.6722 179.069 89.5082 178.895C89.3458 178.719 89.2646 178.499 89.2646 178.236C89.2646 178.02 89.325 177.83 89.446 177.664C89.5687 177.498 89.7352 177.368 89.9457 177.274C90.1578 177.179 90.3981 177.132 90.6665 177.132C91.0444 177.132 91.341 177.215 91.5565 177.381C91.7736 177.546 91.9277 177.765 92.0188 178.037ZM95.8053 181L94.642 177.182H95.2584L96.0837 180.105H96.1235L96.9388 177.182H97.5653L98.3706 180.095H98.4104L99.2357 177.182H99.8522L98.6888 181H98.1121L97.2769 178.067H97.2172L96.382 181H95.8053ZM100.628 181V177.182H101.214V181H100.628ZM100.926 176.545C100.812 176.545 100.713 176.507 100.63 176.429C100.549 176.351 100.508 176.257 100.508 176.148C100.508 176.038 100.549 175.945 100.63 175.867C100.713 175.789 100.812 175.75 100.926 175.75C101.04 175.75 101.138 175.789 101.219 175.867C101.302 175.945 101.344 176.038 101.344 176.148C101.344 176.257 101.302 176.351 101.219 176.429C101.138 176.507 101.04 176.545 100.926 176.545ZM102.876 175.909V181H102.289V175.909H102.876ZM104.537 175.909V181H103.95V175.909H104.537ZM108.703 181.089C108.462 181.089 108.242 181.044 108.045 180.953C107.848 180.86 107.691 180.727 107.575 180.553C107.459 180.377 107.401 180.165 107.401 179.916C107.401 179.697 107.444 179.52 107.53 179.384C107.616 179.247 107.732 179.139 107.876 179.061C108.02 178.983 108.179 178.925 108.353 178.887C108.529 178.847 108.705 178.816 108.882 178.793C109.114 178.763 109.303 178.74 109.447 178.725C109.593 178.709 109.699 178.682 109.765 178.643C109.833 178.605 109.867 178.539 109.867 178.445V178.425C109.867 178.179 109.8 177.989 109.665 177.853C109.533 177.717 109.332 177.649 109.061 177.649C108.781 177.649 108.562 177.71 108.403 177.833C108.244 177.956 108.132 178.087 108.067 178.226L107.51 178.027C107.61 177.795 107.742 177.614 107.908 177.485C108.075 177.354 108.258 177.263 108.455 177.212C108.654 177.159 108.849 177.132 109.042 177.132C109.164 177.132 109.305 177.147 109.464 177.177C109.625 177.205 109.78 177.264 109.929 177.353C110.08 177.443 110.205 177.578 110.304 177.759C110.404 177.939 110.453 178.181 110.453 178.484V181H109.867V180.483H109.837C109.797 180.566 109.731 180.654 109.638 180.749C109.545 180.843 109.422 180.924 109.268 180.99C109.114 181.056 108.926 181.089 108.703 181.089ZM108.793 180.562C109.025 180.562 109.221 180.517 109.38 180.426C109.54 180.335 109.661 180.217 109.743 180.073C109.825 179.929 109.867 179.777 109.867 179.618V179.081C109.842 179.111 109.787 179.138 109.703 179.163C109.62 179.186 109.524 179.207 109.414 179.225C109.307 179.242 109.201 179.257 109.099 179.27C108.998 179.281 108.916 179.291 108.853 179.3C108.7 179.32 108.558 179.352 108.425 179.397C108.294 179.44 108.188 179.505 108.107 179.593C108.027 179.679 107.988 179.797 107.988 179.946C107.988 180.15 108.063 180.304 108.214 180.408C108.366 180.511 108.559 180.562 108.793 180.562ZM111.524 182.432V177.182H112.091V177.788H112.161C112.204 177.722 112.263 177.638 112.34 177.535C112.417 177.43 112.528 177.338 112.673 177.256C112.819 177.174 113.016 177.132 113.264 177.132C113.586 177.132 113.869 177.212 114.114 177.373C114.36 177.534 114.551 177.762 114.689 178.057C114.826 178.352 114.895 178.7 114.895 179.101C114.895 179.505 114.826 179.856 114.689 180.152C114.551 180.447 114.361 180.676 114.117 180.838C113.873 180.999 113.592 181.08 113.274 181.08C113.029 181.08 112.833 181.039 112.685 180.958C112.538 180.875 112.424 180.781 112.345 180.677C112.265 180.571 112.204 180.483 112.161 180.413H112.111V182.432H111.524ZM112.101 179.091C112.101 179.379 112.143 179.634 112.228 179.854C112.312 180.073 112.436 180.244 112.598 180.369C112.761 180.491 112.959 180.553 113.195 180.553C113.44 180.553 113.645 180.488 113.809 180.359C113.974 180.228 114.099 180.052 114.182 179.832C114.266 179.61 114.308 179.363 114.308 179.091C114.308 178.822 114.267 178.58 114.184 178.365C114.103 178.148 113.979 177.976 113.814 177.85C113.65 177.723 113.443 177.659 113.195 177.659C112.956 177.659 112.756 177.72 112.593 177.841C112.431 177.96 112.308 178.127 112.225 178.343C112.142 178.556 112.101 178.806 112.101 179.091ZM115.79 182.432V177.182H116.357V177.788H116.426C116.469 177.722 116.529 177.638 116.605 177.535C116.683 177.43 116.794 177.338 116.938 177.256C117.084 177.174 117.281 177.132 117.53 177.132C117.851 177.132 118.135 177.212 118.38 177.373C118.625 177.534 118.817 177.762 118.954 178.057C119.092 178.352 119.161 178.7 119.161 179.101C119.161 179.505 119.092 179.856 118.954 180.152C118.817 180.447 118.626 180.676 118.383 180.838C118.139 180.999 117.858 181.08 117.54 181.08C117.295 181.08 117.098 181.039 116.951 180.958C116.803 180.875 116.69 180.781 116.61 180.677C116.531 180.571 116.469 180.483 116.426 180.413H116.377V182.432H115.79ZM116.367 179.091C116.367 179.379 116.409 179.634 116.493 179.854C116.578 180.073 116.701 180.244 116.864 180.369C117.026 180.491 117.225 180.553 117.46 180.553C117.706 180.553 117.91 180.488 118.074 180.359C118.24 180.228 118.364 180.052 118.447 179.832C118.532 179.61 118.574 179.363 118.574 179.091C118.574 178.822 118.533 178.58 118.45 178.365C118.368 178.148 118.245 177.976 118.079 177.85C117.915 177.723 117.709 177.659 117.46 177.659C117.222 177.659 117.021 177.72 116.859 177.841C116.696 177.96 116.574 178.127 116.491 178.343C116.408 178.556 116.367 178.806 116.367 179.091ZM121.656 181.08C121.288 181.08 120.971 180.998 120.704 180.836C120.439 180.672 120.234 180.443 120.09 180.15C119.948 179.855 119.877 179.512 119.877 179.121C119.877 178.73 119.948 178.385 120.09 178.087C120.234 177.787 120.435 177.553 120.692 177.386C120.95 177.217 121.252 177.132 121.597 177.132C121.796 177.132 121.992 177.165 122.186 177.232C122.38 177.298 122.556 177.406 122.715 177.555C122.874 177.702 123.001 177.898 123.096 178.141C123.19 178.385 123.237 178.685 123.237 179.041V179.29H120.294V178.783H122.641C122.641 178.567 122.598 178.375 122.511 178.206C122.427 178.037 122.306 177.904 122.149 177.806C121.993 177.708 121.809 177.659 121.597 177.659C121.363 177.659 121.161 177.717 120.99 177.833C120.821 177.947 120.691 178.097 120.6 178.281C120.509 178.464 120.463 178.662 120.463 178.872V179.21C120.463 179.499 120.513 179.743 120.612 179.944C120.713 180.142 120.853 180.294 121.032 180.398C121.211 180.501 121.419 180.553 121.656 180.553C121.81 180.553 121.95 180.531 122.074 180.488C122.2 180.443 122.308 180.377 122.4 180.289C122.491 180.2 122.561 180.089 122.611 179.956L123.178 180.115C123.118 180.307 123.018 180.476 122.877 180.622C122.736 180.766 122.562 180.879 122.355 180.96C122.148 181.04 121.915 181.08 121.656 181.08ZM125.253 181.089C125.011 181.089 124.792 181.044 124.595 180.953C124.397 180.86 124.241 180.727 124.125 180.553C124.009 180.377 123.951 180.165 123.951 179.916C123.951 179.697 123.994 179.52 124.08 179.384C124.166 179.247 124.281 179.139 124.426 179.061C124.57 178.983 124.729 178.925 124.903 178.887C125.078 178.847 125.255 178.816 125.432 178.793C125.664 178.763 125.852 178.74 125.997 178.725C126.142 178.709 126.248 178.682 126.315 178.643C126.383 178.605 126.417 178.539 126.417 178.445V178.425C126.417 178.179 126.35 177.989 126.215 177.853C126.083 177.717 125.881 177.649 125.611 177.649C125.331 177.649 125.112 177.71 124.953 177.833C124.793 177.956 124.682 178.087 124.617 178.226L124.06 178.027C124.16 177.795 124.292 177.614 124.458 177.485C124.625 177.354 124.807 177.263 125.005 177.212C125.204 177.159 125.399 177.132 125.591 177.132C125.714 177.132 125.855 177.147 126.014 177.177C126.175 177.205 126.33 177.264 126.479 177.353C126.63 177.443 126.755 177.578 126.854 177.759C126.954 177.939 127.003 178.181 127.003 178.484V181H126.417V180.483H126.387C126.347 180.566 126.281 180.654 126.188 180.749C126.095 180.843 125.972 180.924 125.818 180.99C125.663 181.056 125.475 181.089 125.253 181.089ZM125.343 180.562C125.575 180.562 125.77 180.517 125.929 180.426C126.09 180.335 126.211 180.217 126.292 180.073C126.375 179.929 126.417 179.777 126.417 179.618V179.081C126.392 179.111 126.337 179.138 126.253 179.163C126.17 179.186 126.074 179.207 125.964 179.225C125.857 179.242 125.751 179.257 125.649 179.27C125.547 179.281 125.465 179.291 125.402 179.3C125.25 179.32 125.107 179.352 124.975 179.397C124.844 179.44 124.738 179.505 124.657 179.593C124.577 179.679 124.537 179.797 124.537 179.946C124.537 180.15 124.613 180.304 124.764 180.408C124.916 180.511 125.109 180.562 125.343 180.562ZM128.074 181V177.182H128.641V177.759H128.681C128.75 177.57 128.876 177.416 129.058 177.299C129.241 177.181 129.446 177.122 129.675 177.122C129.718 177.122 129.772 177.123 129.836 177.125C129.901 177.126 129.95 177.129 129.983 177.132V177.729C129.963 177.724 129.918 177.716 129.846 177.706C129.777 177.695 129.703 177.689 129.625 177.689C129.44 177.689 129.274 177.728 129.128 177.806C128.984 177.882 128.869 177.988 128.785 178.124C128.702 178.258 128.661 178.411 128.661 178.584V181H128.074ZM133.234 178.703V181H132.647V175.909H133.234V177.778H133.284C133.373 177.581 133.507 177.425 133.686 177.309C133.867 177.191 134.107 177.132 134.407 177.132C134.667 177.132 134.895 177.184 135.091 177.289C135.286 177.391 135.438 177.55 135.546 177.763C135.655 177.976 135.71 178.246 135.71 178.574V181H135.123V178.614C135.123 178.31 135.044 178.076 134.887 177.91C134.731 177.743 134.515 177.659 134.238 177.659C134.046 177.659 133.874 177.7 133.721 177.781C133.57 177.862 133.451 177.981 133.363 178.136C133.277 178.292 133.234 178.481 133.234 178.703ZM138.384 181.08C138.016 181.08 137.699 180.998 137.432 180.836C137.167 180.672 136.962 180.443 136.818 180.15C136.675 179.855 136.604 179.512 136.604 179.121C136.604 178.73 136.675 178.385 136.818 178.087C136.962 177.787 137.163 177.553 137.419 177.386C137.678 177.217 137.98 177.132 138.324 177.132C138.523 177.132 138.719 177.165 138.913 177.232C139.107 177.298 139.284 177.406 139.443 177.555C139.602 177.702 139.729 177.898 139.823 178.141C139.918 178.385 139.965 178.685 139.965 179.041V179.29H137.022V178.783H139.368C139.368 178.567 139.325 178.375 139.239 178.206C139.154 178.037 139.033 177.904 138.876 177.806C138.72 177.708 138.536 177.659 138.324 177.659C138.091 177.659 137.888 177.717 137.718 177.833C137.549 177.947 137.419 178.097 137.327 178.281C137.236 178.464 137.191 178.662 137.191 178.872V179.21C137.191 179.499 137.24 179.743 137.34 179.944C137.441 180.142 137.581 180.294 137.76 180.398C137.939 180.501 138.147 180.553 138.384 180.553C138.538 180.553 138.677 180.531 138.801 180.488C138.927 180.443 139.036 180.377 139.127 180.289C139.218 180.2 139.289 180.089 139.338 179.956L139.905 180.115C139.846 180.307 139.745 180.476 139.604 180.622C139.464 180.766 139.29 180.879 139.082 180.96C138.875 181.04 138.642 181.08 138.384 181.08ZM140.857 181V177.182H141.424V177.759H141.464C141.533 177.57 141.659 177.416 141.842 177.299C142.024 177.181 142.229 177.122 142.458 177.122C142.501 177.122 142.555 177.123 142.62 177.125C142.684 177.126 142.733 177.129 142.766 177.132V177.729C142.746 177.724 142.701 177.716 142.63 177.706C142.56 177.695 142.486 177.689 142.408 177.689C142.223 177.689 142.057 177.728 141.911 177.806C141.767 177.882 141.653 177.988 141.568 178.124C141.485 178.258 141.444 178.411 141.444 178.584V181H140.857ZM144.946 181.08C144.578 181.08 144.261 180.998 143.994 180.836C143.729 180.672 143.525 180.443 143.38 180.15C143.238 179.855 143.167 179.512 143.167 179.121C143.167 178.73 143.238 178.385 143.38 178.087C143.525 177.787 143.725 177.553 143.982 177.386C144.24 177.217 144.542 177.132 144.887 177.132C145.086 177.132 145.282 177.165 145.476 177.232C145.67 177.298 145.846 177.406 146.005 177.555C146.164 177.702 146.291 177.898 146.386 178.141C146.48 178.385 146.527 178.685 146.527 179.041V179.29H143.584V178.783H145.931C145.931 178.567 145.888 178.375 145.801 178.206C145.717 178.037 145.596 177.904 145.439 177.806C145.283 177.708 145.099 177.659 144.887 177.659C144.653 177.659 144.451 177.717 144.28 177.833C144.111 177.947 143.981 178.097 143.89 178.281C143.799 178.464 143.753 178.662 143.753 178.872V179.21C143.753 179.499 143.803 179.743 143.902 179.944C144.003 180.142 144.143 180.294 144.322 180.398C144.501 180.501 144.709 180.553 144.946 180.553C145.1 180.553 145.24 180.531 145.364 180.488C145.49 180.443 145.598 180.377 145.69 180.289C145.781 180.2 145.851 180.089 145.901 179.956L146.468 180.115C146.408 180.307 146.308 180.476 146.167 180.622C146.026 180.766 145.852 180.879 145.645 180.96C145.438 181.04 145.205 181.08 144.946 181.08Z" fill="#A0A0A0"/>
</svg>
