<svg width="250" height="250" viewBox="0 0 250 250" fill="none" xmlns="http://www.w3.org/2000/svg">
<g clip-path="url(#clip0_1094_1251)">
<rect width="250" height="250" fill="white"/>
<path d="M48.92 135L53.272 112.6H56.504L61.96 126.952L67.416 112.6H70.648L75 135H71.016L68.328 121.144L63.288 134.488H60.616L55.576 121.144L52.904 135H48.92ZM84.1788 135.416C82.7068 135.416 81.3628 135.037 80.1468 134.28C78.9414 133.523 77.9761 132.504 77.2508 131.224C76.5361 129.944 76.1788 128.531 76.1788 126.984C76.1788 125.821 76.3868 124.733 76.8028 123.72C77.2188 122.696 77.7894 121.8 78.5148 121.032C79.2508 120.253 80.1041 119.645 81.0748 119.208C82.0454 118.771 83.0801 118.552 84.1788 118.552C85.4268 118.552 86.5681 118.819 87.6028 119.352C88.6481 119.875 89.5334 120.595 90.2588 121.512C90.9841 122.429 91.5121 123.475 91.8428 124.648C92.1734 125.821 92.2481 127.048 92.0668 128.328H80.3708C80.5201 128.925 80.7654 129.464 81.1068 129.944C81.4481 130.413 81.8801 130.792 82.4028 131.08C82.9254 131.357 83.5174 131.501 84.1788 131.512C84.8614 131.523 85.4801 131.363 86.0348 131.032C86.6001 130.691 87.0694 130.232 87.4428 129.656L91.4268 130.584C90.7761 132.003 89.8054 133.165 88.5148 134.072C87.2241 134.968 85.7788 135.416 84.1788 135.416ZM80.2428 125.4H88.1148C87.9974 124.76 87.7468 124.184 87.3628 123.672C86.9894 123.149 86.5254 122.733 85.9708 122.424C85.4161 122.115 84.8188 121.96 84.1788 121.96C83.5388 121.96 82.9468 122.115 82.4028 122.424C81.8588 122.723 81.3948 123.133 81.0108 123.656C80.6374 124.168 80.3814 124.749 80.2428 125.4ZM106.797 119H110.701V135H106.797L106.621 133.016C106.183 133.731 105.602 134.312 104.877 134.76C104.162 135.197 103.314 135.416 102.333 135.416C101.149 135.416 100.039 135.192 99.0045 134.744C97.9698 134.296 97.0578 133.677 96.2685 132.888C95.4898 132.099 94.8765 131.187 94.4285 130.152C93.9912 129.117 93.7725 128.008 93.7725 126.824C93.7725 125.683 93.9805 124.611 94.3965 123.608C94.8232 122.605 95.4152 121.725 96.1725 120.968C96.9298 120.211 97.8045 119.619 98.7965 119.192C99.7885 118.765 100.855 118.552 101.997 118.552C103.053 118.552 103.997 118.787 104.829 119.256C105.671 119.725 106.386 120.323 106.973 121.048L106.797 119ZM102.237 131.656C103.069 131.656 103.805 131.448 104.445 131.032C105.085 130.616 105.586 130.056 105.949 129.352C106.311 128.637 106.493 127.853 106.493 127C106.493 126.136 106.311 125.352 105.949 124.648C105.586 123.933 105.079 123.368 104.429 122.952C103.789 122.536 103.058 122.328 102.237 122.328C101.415 122.328 100.663 122.541 99.9805 122.968C99.3085 123.384 98.7698 123.944 98.3645 124.648C97.9698 125.352 97.7725 126.136 97.7725 127C97.7725 127.864 97.9752 128.648 98.3805 129.352C98.7858 130.056 99.3245 130.616 99.9965 131.032C100.679 131.448 101.426 131.656 102.237 131.656ZM113.983 135V111H117.887V135H113.983ZM121.733 135L126.085 112.6H129.317L134.773 126.952L140.229 112.6H143.461L147.813 135H143.829L141.141 121.144L136.101 134.488H133.429L128.389 121.144L125.717 135H121.733ZM162.015 119H165.919V135H162.015L161.839 133.016C161.402 133.731 160.821 134.312 160.095 134.76C159.381 135.197 158.533 135.416 157.551 135.416C156.367 135.416 155.258 135.192 154.223 134.744C153.189 134.296 152.277 133.677 151.487 132.888C150.709 132.099 150.095 131.187 149.647 130.152C149.21 129.117 148.991 128.008 148.991 126.824C148.991 125.683 149.199 124.611 149.615 123.608C150.042 122.605 150.634 121.725 151.391 120.968C152.149 120.211 153.023 119.619 154.015 119.192C155.007 118.765 156.074 118.552 157.215 118.552C158.271 118.552 159.215 118.787 160.047 119.256C160.89 119.725 161.605 120.323 162.191 121.048L162.015 119ZM157.455 131.656C158.287 131.656 159.023 131.448 159.663 131.032C160.303 130.616 160.805 130.056 161.167 129.352C161.53 128.637 161.711 127.853 161.711 127C161.711 126.136 161.53 125.352 161.167 124.648C160.805 123.933 160.298 123.368 159.647 122.952C159.007 122.536 158.277 122.328 157.455 122.328C156.634 122.328 155.882 122.541 155.199 122.968C154.527 123.384 153.989 123.944 153.583 124.648C153.189 125.352 152.991 126.136 152.991 127C152.991 127.864 153.194 128.648 153.599 129.352C154.005 130.056 154.543 130.616 155.215 131.032C155.898 131.448 156.645 131.656 157.455 131.656ZM177.684 122.904H174.58V135H170.676V122.904H168.308V119H170.676V113.976H174.58V119H177.684V122.904ZM187.241 135.416C185.769 135.416 184.425 135.037 183.209 134.28C182.004 133.523 181.039 132.504 180.313 131.224C179.599 129.944 179.241 128.531 179.241 126.984C179.241 125.821 179.449 124.733 179.865 123.72C180.281 122.696 180.852 121.8 181.577 121.032C182.313 120.253 183.167 119.645 184.137 119.208C185.108 118.771 186.143 118.552 187.241 118.552C188.489 118.552 189.631 118.819 190.665 119.352C191.711 119.875 192.596 120.595 193.321 121.512C194.047 122.429 194.575 123.475 194.905 124.648C195.236 125.821 195.311 127.048 195.129 128.328H183.433C183.583 128.925 183.828 129.464 184.169 129.944C184.511 130.413 184.943 130.792 185.465 131.08C185.988 131.357 186.58 131.501 187.241 131.512C187.924 131.523 188.543 131.363 189.097 131.032C189.663 130.691 190.132 130.232 190.505 129.656L194.489 130.584C193.839 132.003 192.868 133.165 191.577 134.072C190.287 134.968 188.841 135.416 187.241 135.416ZM183.305 125.4H191.177C191.06 124.76 190.809 124.184 190.425 123.672C190.052 123.149 189.588 122.733 189.033 122.424C188.479 122.115 187.881 121.96 187.241 121.96C186.601 121.96 186.009 122.115 185.465 122.424C184.921 122.723 184.457 123.133 184.073 123.656C183.7 124.168 183.444 124.749 183.305 125.4ZM199.155 135.416C198.6 135.416 198.126 135.224 197.731 134.84C197.347 134.445 197.155 133.965 197.155 133.4C197.155 132.856 197.347 132.387 197.731 131.992C198.126 131.597 198.6 131.4 199.155 131.4C199.71 131.4 200.184 131.597 200.579 131.992C200.974 132.387 201.171 132.856 201.171 133.4C201.171 133.965 200.974 134.445 200.579 134.84C200.184 135.224 199.71 135.416 199.155 135.416Z" fill="tomato"/>
<g opacity="0.23">
<circle cx="249.5" cy="250.5" r="86.5" fill="#4B557B"/>
<circle cx="261.5" cy="262.5" r="86.5" fill="tomato"/>
</g>
<g opacity="0.23">
<circle cx="5.50001" cy="5.49999" r="86.5" transform="rotate(-180 5.50001 5.49999)" fill="#4B557B"/>
<circle cx="-6.49999" cy="-6.50001" r="86.5" transform="rotate(-180 -6.49999 -6.50001)" fill="tomato"/>
</g>
</g>
<defs>
<clipPath id="clip0_1094_1251">
<rect width="250" height="250" fill="white"/>
</clipPath>
</defs>
</svg>
